<svg xmlns="http://www.w3.org/2000/svg" xmlns:xlink="http://www.w3.org/1999/xlink" id="Layer_1" x="0" y="0" version="1.1" viewBox="0 0 500 500" xml:space="preserve" style="enable-background:new 0 0 500 500"><style type="text/css">.st0{fill:#e92b40}.st1{fill:#ff3d3d}</style><switch><g><g><path d="M124.56,94.45v316.14l-7.6,1.17c-3.62,0.56-6.88-2.25-6.88-5.92V99.19c0-3.66,3.27-6.47,6.88-5.92 L124.56,94.45z M313.84,103.9c-2.9,0.44-5.05,2.95-5.05,5.89v92.4H191.04v-92.37c0-2.94-2.14-5.45-5.05-5.88l-55.45-8.58v314.29 l55.45-8.58c2.91-0.43,5.05-2.95,5.05-5.89V291.02h117.76v104.22c0,2.95,2.15,5.45,5.05,5.89l55.25,8.53V95.37L313.84,103.9z M382.67,93.28l-7.6,1.17v316.14l7.6,1.17c3.62,0.56,6.88-2.25,6.88-5.92V99.19C389.55,95.53,386.29,92.72,382.67,93.28z" class="st0"/><g><path d="M290.19,93.82v120.51c0,3.3-2.67,5.97-5.97,5.97H215.6c-3.3,0-5.97-2.67-5.97-5.97V93.84 c0-2.95-2.15-5.45-5.06-5.9l-67.15-10.36c-3.62-0.56-6.88,2.24-6.88,5.9v338.06c0,3.66,3.26,6.46,6.88,5.9l67.15-10.36 c2.91-0.45,5.06-2.95,5.06-5.9V278.88c0-3.3,2.67-5.97,5.97-5.97h68.63c3.3,0,5.97,2.67,5.97,5.97v132.33 c0,2.94,2.15,5.45,5.06,5.9l66.97,10.34c3.62,0.56,6.88-2.24,6.88-5.9V83.49c0-3.66-3.26-6.46-6.88-5.9l-66.97,10.33 C292.34,88.37,290.19,90.88,290.19,93.82z" class="st1"/></g></g></g></switch></svg>