<svg xmlns="http://www.w3.org/2000/svg" xmlns:xlink="http://www.w3.org/1999/xlink" id="Layer_1" x="0" y="0" enable-background="new 0 0 20 20" version="1.1" viewBox="0 0 20 20" xml:space="preserve"><metadata><sfw xmlns="http://ns.adobe.com/SaveForWeb/1.0/"><slices/><sliceSourceBounds width="31.74" height="22.72" x="207.32" y="-242.22" bottomLeftOrigin="true"/></sfw></metadata><g><defs><rect id="SVGID_1_" width="20" height="20"/></defs><clipPath id="SVGID_2_"><use overflow="visible" xlink:href="#SVGID_1_"/></clipPath><g clip-path="url(#SVGID_2_)"><path fill="#00EBFF" fill-rule="evenodd" d="M26.55,12.35C24.54,11.04,10.69,2.01,10.68,2.02 C7.38,4.18-0.12,9.05-5.18,12.35c-0.05,0.03,15.87,10.37,15.88,10.36C17.98,17.96,26.61,12.39,26.55,12.35z M22.02,15.3 l-2.23-1.45l2.2-1.44c0,0-0.11-0.07,2.23,1.45L22.02,15.3z M19.76,16.77l-2.23-1.45l2.2-1.44c0,0-0.11-0.07,2.23,1.45L19.76,16.77 z M17.5,18.24l-2.23-1.45l2.2-1.44c0,0-0.11-0.07,2.23,1.45L17.5,18.24z M15.23,19.72l-2.23-1.45l2.2-1.44 c0,0-0.11-0.07,2.23,1.45L15.23,19.72z M12.97,21.19l-2.23-1.45l2.2-1.44c0,0-0.11-0.07,2.23,1.45L12.97,21.19z M6.2,19.75 c2.33-1.52,2.22-1.45,2.23-1.45l2.2,1.44L8.4,21.19L6.2,19.75z M3.93,18.28c2.33-1.52,2.22-1.45,2.23-1.45l2.2,1.44l-2.23,1.45 L3.93,18.28z M1.67,16.81C4,15.28,3.89,15.35,3.9,15.35l2.2,1.44l-2.23,1.45L1.67,16.81z M-0.59,15.33 c2.33-1.52,2.22-1.45,2.23-1.45l2.2,1.44l-2.23,1.45L-0.59,15.33z M-2.85,13.86c2.33-1.52,2.22-1.45,2.23-1.45l2.2,1.44 l-2.23,1.45L-2.85,13.86z M-0.65,9.44l2.23,1.45l-2.2,1.44c0,0,0.11,0.07-2.23-1.45L-0.65,9.44z M1.61,7.97l2.23,1.45l-2.2,1.44 c0,0,0.11,0.07-2.23-1.45L1.61,7.97z M3.87,6.5L6.1,7.95L3.9,9.39c0,0,0.11,0.07-2.23-1.45L3.87,6.5z M6.14,5.02l2.23,1.45 l-2.2,1.44c0,0,0.11,0.07-2.23-1.45L6.14,5.02z M8.4,3.55L10.63,5l-2.2,1.44c0,0,0.11,0.07-2.23-1.45L8.4,3.55z M15.17,4.99 c-2.33,1.52-2.22,1.45-2.23,1.45L10.74,5l2.23-1.45L15.17,4.99z M17.44,6.46c-2.33,1.52-2.22,1.45-2.23,1.45l-2.2-1.44l2.23-1.45 L17.44,6.46z M19.7,7.94c-2.33,1.52-2.22,1.45-2.23,1.45l-2.2-1.44L17.5,6.5L19.7,7.94z M21.96,9.41 c-2.33,1.52-2.22,1.45-2.23,1.45l-2.2-1.44l2.23-1.45L21.96,9.41z M24.23,10.88C21.89,12.4,22,12.34,22,12.34l-2.2-1.44l2.23-1.45 L24.23,10.88z M10.69,19.7c0,0,0.1,0.07-2.2-1.44c2.32-1.51,2.2-1.44,2.2-1.44l2.2,1.44L10.69,19.7z M10.68,5.04 c0,0-0.1-0.07,2.2,1.44c-2.32,1.51-2.2,1.44-2.2,1.44l-2.2-1.44L10.68,5.04z M10.69,16.76c0,0,0.1,0.07-2.2-1.44 c2.32-1.51,2.2-1.44,2.2-1.44l2.2,1.44L10.69,16.76z M10.68,7.99c0,0-0.1-0.07,2.2,1.44c-2.32,1.51-2.2,1.44-2.2,1.44l-2.2-1.44 L10.68,7.99z M10.69,13.81c0,0,0.1,0.07-2.2-1.44c2.32-1.51,2.2-1.44,2.2-1.44l2.2,1.44L10.69,13.81z M12.95,12.34 c0,0,0.1,0.07-2.2-1.44c2.32-1.51,2.2-1.44,2.2-1.44l2.2,1.44L12.95,12.34z M8.42,9.46c0,0-0.1-0.07,2.2,1.44 c-2.32,1.51-2.2,1.44-2.2,1.44l-2.2-1.44L8.42,9.46z M6.16,10.93c0,0-0.11-0.07,2.2,1.44c-2.32,1.51-2.2,1.44-2.2,1.44l-2.2-1.44 L6.16,10.93z M8.42,12.41c0,0-0.1-0.07,2.2,1.44c-2.32,1.51-2.2,1.44-2.2,1.44l-2.2-1.44L8.42,12.41z M12.95,15.28 c0,0,0.1,0.07-2.2-1.44c2.32-1.51,2.2-1.44,2.2-1.44l2.2,1.44L12.95,15.28z M15.21,13.81c0,0,0.1,0.07-2.2-1.44 c2.32-1.51,2.2-1.44,2.2-1.44l2.2,1.44L15.21,13.81z M17.48,12.34c0,0,0.1,0.07-2.2-1.44c2.32-1.51,2.2-1.44,2.2-1.44l2.2,1.44 L17.48,12.34z M15.21,10.86c0,0,0.1,0.07-2.2-1.44c2.32-1.51,2.2-1.44,2.2-1.44l2.2,1.44L15.21,10.86z M12.95,9.39 c0,0,0.1,0.07-2.2-1.44c2.32-1.51,2.2-1.44,2.2-1.44l2.2,1.44L12.95,9.39z M8.42,6.51c0,0-0.1-0.07,2.2,1.44 c-2.32,1.51-2.2,1.44-2.2,1.44l-2.2-1.44L8.42,6.51z M6.16,7.99c0,0-0.1-0.07,2.2,1.44c-2.32,1.51-2.2,1.44-2.2,1.44l-2.2-1.44 L6.16,7.99z M3.9,9.46c0,0-0.1-0.07,2.2,1.44c-2.32,1.51-2.2,1.44-2.2,1.44l-2.2-1.44L3.9,9.46z M1.63,10.93 c0,0-0.1-0.07,2.2,1.44c-2.32,1.51-2.2,1.44-2.2,1.44l-2.2-1.44L1.63,10.93z M3.9,12.41c0,0-0.1-0.07,2.2,1.44 c-2.32,1.51-2.2,1.44-2.2,1.44l-2.2-1.44L3.9,12.41z M6.16,13.88c0,0-0.11-0.07,2.2,1.44c-2.32,1.51-2.2,1.44-2.2,1.44l-2.2-1.44 L6.16,13.88z M8.42,15.35c0,0-0.11-0.07,2.2,1.44c-2.32,1.51-2.2,1.44-2.2,1.44l-2.2-1.44L8.42,15.35z M12.95,18.23 c0,0,0.1,0.07-2.2-1.44c2.32-1.51,2.2-1.44,2.2-1.44l2.2,1.44L12.95,18.23z M15.21,16.76c0,0,0.1,0.07-2.2-1.44 c2.32-1.51,2.2-1.44,2.2-1.44l2.2,1.44L15.21,16.76z M17.48,15.28c0,0,0.1,0.07-2.2-1.44c2.32-1.51,2.2-1.44,2.2-1.44l2.2,1.44 L17.48,15.28z M19.74,13.81c0,0,0.1,0.07-2.2-1.44c2.32-1.51,2.2-1.44,2.2-1.44l2.2,1.44L19.74,13.81z M10.69,2.06l2.23,1.45 l-2.22,1.45c0,0,0.11,0.07-2.23-1.45L10.69,2.06z M-2.91,10.92l2.23,1.45l-2.23,1.45l-2.23-1.45L-2.91,10.92z M10.69,22.68 l-2.23-1.45l2.22-1.45c0,0-0.11-0.07,2.23,1.45L10.69,22.68z M24.28,13.82l-2.23-1.45l2.23-1.45l2.23,1.45L24.28,13.82z" clip-rule="evenodd" opacity=".1"/><g><path id="XMLID_5_" fill="#13027B" d="M1.23,9.27c-0.39,0-0.67,0.03-0.67-0.1V8.81c0-0.21,0.61-0.01,0.7-0.16 c0.04-0.06,0.1-0.11,0.02-0.16c-0.19-0.11-0.44-0.2-0.27-0.3c0.35-0.2,0.52-0.35,0.69-0.25C2.07,8.14,2,8.14,2.25,8.08 C2.31,8.07,2.35,8.04,2.35,8V7.78c0-0.06,0.08-0.1,0.18-0.1c0.54,0,0.8-0.03,0.8,0.1c0,0.22-0.03,0.27,0.1,0.3 c0.1,0.02,0.19,0.06,0.28,0.01C3.9,7.98,4.07,7.84,4.23,7.94c0.38,0.22,0.61,0.3,0.44,0.4C4.3,8.55,4.31,8.51,4.41,8.65 c0.09,0.14,0.7-0.05,0.7,0.16v0.36c0,0.06-0.08,0.1-0.18,0.1c-0.53,0-0.46-0.02-0.57,0.12c-0.11,0.14,0.55,0.25,0.3,0.4 c-0.35,0.2-0.52,0.35-0.69,0.25C3.6,9.83,3.67,9.84,3.42,9.89C3.36,9.91,3.32,9.94,3.32,9.97v0.22c0,0.06-0.08,0.1-0.18,0.1 c-0.54,0-0.8,0.03-0.8-0.1c0-0.23,0.03-0.27-0.1-0.3c-0.1-0.02-0.19-0.06-0.28-0.01c-0.19,0.11-0.36,0.25-0.52,0.16 c-0.38-0.22-0.61-0.3-0.44-0.4C1.44,9.39,1.34,9.47,1.23,9.27z M3.7,8.9C3.6,8.58,3.03,8.4,2.52,8.51 C2.13,8.6,1.89,8.84,1.97,9.08c0.1,0.32,0.67,0.5,1.19,0.38C3.54,9.37,3.78,9.13,3.7,8.9z" opacity=".2"/><path id="XMLID_2_" fill="#13027B" d="M4.87,7.96c-0.39,0-0.67,0.03-0.67-0.1V7.5c0-0.21,0.61-0.01,0.7-0.16 c0.04-0.06,0.1-0.11,0.02-0.16c-0.19-0.11-0.44-0.2-0.27-0.3C5,6.67,5.18,6.53,5.35,6.62c0.37,0.21,0.3,0.2,0.55,0.15 c0.06-0.01,0.09-0.04,0.09-0.08V6.47c0-0.06,0.08-0.1,0.18-0.1c0.54,0,0.8-0.03,0.8,0.1c0,0.22-0.03,0.27,0.1,0.3 c0.1,0.02,0.19,0.06,0.28,0.01c0.19-0.11,0.36-0.25,0.52-0.15l0.44,0.25c0.07,0.04,0.07,0.11,0,0.15 C7.96,7.23,7.96,7.19,8.06,7.34c0.1,0.14,0.7-0.05,0.7,0.16v0.36c0,0.06-0.08,0.1-0.18,0.1c-0.53,0-0.46-0.02-0.57,0.12 c-0.11,0.14,0.55,0.25,0.3,0.4C7.93,8.7,7.78,8.83,7.62,8.73c-0.37-0.21-0.3-0.21-0.55-0.15C7.01,8.6,6.97,8.63,6.97,8.66v0.22 c0,0.06-0.08,0.1-0.18,0.1c-0.54,0-0.8,0.03-0.8-0.1c0-0.23,0.02-0.27-0.1-0.3C5.79,8.56,5.7,8.52,5.61,8.57 C5.42,8.68,5.26,8.83,5.09,8.73c-0.38-0.22-0.61-0.3-0.44-0.4C5.09,8.08,4.98,8.16,4.87,7.96z M7.35,7.59 c-0.1-0.32-0.67-0.5-1.19-0.38C5.77,7.29,5.54,7.53,5.61,7.77c0.1,0.32,0.67,0.5,1.19,0.38C7.19,8.06,7.43,7.82,7.35,7.59z" opacity=".2"/><linearGradient id="SVGID_3_" x1="-1203.126" x2="-1203.243" y1="7.813" y2="3.826" gradientTransform="matrix(-1 0 0 1 -1196.7994 0)" gradientUnits="userSpaceOnUse"><stop offset="0" style="stop-color:#001c96"/><stop offset="1" style="stop-color:#157eff"/></linearGradient><path fill="url(#SVGID_3_)" d="M4.06,7.14c0-0.14,0.37-0.1,0.56-0.1c0.06,0,0.17,0.07,0.18,0.05c0.06-0.08-0.05-0.11-0.3-0.25 C4.45,6.8,5.32,6.77,4.78,6.77c-0.39-0.22-0.32-0.12-0.32-0.5h0.4c0.06-0.03,0.2-0.14,0.34-0.05c0.12,0.07,0,0.05,0.65,0.05V6.06 c0-0.06,0.08-0.1,0.18-0.1c0.89,0,0.8-0.05,0.8,0.31h0.57c0.06-0.03,0.19-0.13,0.34-0.05c0.11,0.07,0.02,0.05,0.49,0.05 c0,0.3,0.02,0.31-0.05,0.35C7.84,6.8,7.93,6.77,7.76,6.77l0,0.03c0.07,0.04,0.48-0.01,0.41,0.03c-0.26,0.15-0.36,0.18-0.3,0.25 c0.02,0.02,0.12-0.04,0.18-0.04c0.21,0,0.56-0.04,0.56,0.1c0,0.66,0.09,0.63-0.4,0.63c0,0,0.01,0.45,0.01,0.45 C8.21,8.28,8.18,8.28,7.72,8.54c-0.07,0.04-0.19,0.04-0.25,0c-0.37-0.21-0.3-0.2-0.55-0.15c-0.13,0.03-0.09,0.09-0.09,0.3 c0,0.14-0.26,0.1-0.8,0.1c-0.36,0-0.03-0.35-0.28-0.4c-0.1-0.02-0.19-0.06-0.28-0.01C5.3,8.48,5.11,8.63,4.95,8.54 C4.47,8.26,4.47,8.27,4.46,8.22c0,0,0,0.03,0-0.46C3.98,7.76,4.06,7.81,4.06,7.14z M5.47,7.58c0.1,0.32,0.67,0.5,1.19,0.38 c0.39-0.09,0.63-0.33,0.55-0.56C7.1,7.08,6.53,6.9,6.02,7.01C5.63,7.1,5.39,7.34,5.47,7.58z"/><linearGradient id="SVGID_4_" x1="-1199.492" x2="-1199.492" y1="9.769" y2="5.421" gradientTransform="matrix(-1 0 0 1 -1196.7994 0)" gradientUnits="userSpaceOnUse"><stop offset="0" style="stop-color:#001c96"/><stop offset="1" style="stop-color:#157eff"/></linearGradient><path fill="url(#SVGID_4_)" d="M0.42,8.45c0-0.14,0.37-0.1,0.56-0.1c0.06,0,0.17,0.07,0.18,0.05c0.06-0.08-0.05-0.11-0.3-0.25 C0.8,8.11,1.68,8.08,1.13,8.08c-0.39-0.22-0.32-0.12-0.32-0.5h0.4c0.06-0.03,0.2-0.14,0.34-0.05c0.12,0.07,0,0.05,0.65,0.05V7.37 c0-0.06,0.08-0.1,0.18-0.1c0.89,0,0.8-0.05,0.8,0.31h0.57c0.06-0.03,0.19-0.13,0.34-0.05C4.2,7.59,4.11,7.57,4.58,7.57 c0,0.3,0.02,0.31-0.05,0.35C4.2,8.11,4.29,8.08,4.12,8.08l0,0.03C4.19,8.15,4.6,8.1,4.53,8.14c-0.26,0.15-0.36,0.18-0.3,0.25 c0.02,0.02,0.12-0.04,0.18-0.04c0.21,0,0.56-0.04,0.56,0.1c0,0.66,0.09,0.63-0.4,0.63c0,0,0.01,0.45,0.01,0.45 C4.56,9.59,4.54,9.59,4.08,9.85c-0.07,0.04-0.19,0.04-0.25,0c-0.37-0.21-0.3-0.2-0.55-0.15C3.15,9.73,3.18,9.79,3.18,10 c0,0.14-0.26,0.1-0.8,0.1c-0.36,0-0.03-0.35-0.28-0.4C2,9.68,1.91,9.64,1.82,9.69C1.65,9.79,1.47,9.94,1.3,9.85 C0.83,9.57,0.82,9.58,0.81,9.53c0,0,0,0.03,0-0.46C0.33,9.07,0.42,9.12,0.42,8.45z M1.82,8.89c0.1,0.32,0.67,0.5,1.19,0.38 C3.4,9.18,3.64,8.94,3.56,8.7c-0.1-0.32-0.67-0.5-1.19-0.38C1.98,8.41,1.75,8.65,1.82,8.89z"/><linearGradient id="XMLID_12_" x1="-1202.595" x2="-1200.186" y1="11.194" y2="8.946" gradientTransform="matrix(-1 0 0 1 -1196.7994 0)" gradientUnits="userSpaceOnUse"><stop offset="0" style="stop-color:#093cc3"/><stop offset="1" style="stop-color:#2787ff"/><stop offset="1" style="stop-color:#2787ff"/></linearGradient><path id="XMLID_7_" fill="url(#XMLID_12_)" d="M1.08,8.58c-0.39,0-0.67,0.03-0.67-0.1V8.12c0-0.21,0.61-0.01,0.7-0.16 C1.29,7.7,0.59,7.65,0.86,7.5c0.35-0.2,0.52-0.35,0.69-0.25c0.37,0.21,0.3,0.2,0.55,0.15C2.23,7.37,2.2,7.3,2.2,7.09 c0-0.06,0.08-0.1,0.18-0.1c0.54,0,0.8-0.03,0.8,0.1c0,0.22-0.03,0.27,0.1,0.3c0.44,0.1,0.53-0.3,0.8-0.14 c0.38,0.22,0.61,0.3,0.44,0.4C4.16,7.86,4.17,7.82,4.27,7.97c0.09,0.14,0.7-0.05,0.7,0.16c0,0.32,0.06,0.46-0.18,0.46 c-0.53,0-0.46-0.02-0.57,0.12c-0.11,0.14,0.55,0.25,0.3,0.4C4.17,9.3,4,9.45,3.83,9.35c-0.37-0.21-0.3-0.21-0.55-0.15 C3.04,9.26,3.36,9.61,3,9.61c-0.54,0-0.8,0.03-0.8-0.1c0-0.23,0.03-0.27-0.1-0.3c-0.43-0.09-0.53,0.3-0.8,0.15 c-0.38-0.22-0.61-0.3-0.44-0.4C1.3,8.7,1.19,8.78,1.08,8.58z M3.56,8.21c-0.1-0.32-0.67-0.5-1.19-0.38 C1.98,7.91,1.75,8.15,1.82,8.39c0.1,0.32,0.67,0.5,1.19,0.38C3.4,8.69,3.64,8.44,3.56,8.21z"/><linearGradient id="XMLID_13_" x1="-1207.205" x2="-1203.64" y1="11.687" y2="7.568" gradientTransform="matrix(-1 0 0 1 -1196.7994 0)" gradientUnits="userSpaceOnUse"><stop offset="0" style="stop-color:#093cc3"/><stop offset="1" style="stop-color:#2787ff"/><stop offset="1" style="stop-color:#2787ff"/></linearGradient><path id="XMLID_1_" fill="url(#XMLID_13_)" d="M4.73,7.27c-0.39,0-0.67,0.03-0.67-0.1V6.81c0-0.21,0.61-0.01,0.7-0.16 c0.04-0.06,0.1-0.11,0.02-0.16c-0.19-0.11-0.44-0.2-0.27-0.3c0.35-0.2,0.52-0.35,0.69-0.25c0.37,0.21,0.3,0.2,0.55,0.15 C5.81,6.07,5.85,6.04,5.85,6V5.78c0-0.06,0.08-0.1,0.18-0.1c0.54,0,0.8-0.03,0.8,0.1c0,0.22-0.03,0.27,0.1,0.3 c0.1,0.02,0.19,0.06,0.28,0.01C7.4,5.98,7.57,5.84,7.73,5.94l0.44,0.25c0.07,0.04,0.07,0.11,0,0.15C7.81,6.54,7.81,6.5,7.91,6.66 c0.1,0.14,0.7-0.05,0.7,0.16v0.36c0,0.06-0.08,0.1-0.18,0.1c-0.53,0-0.46-0.02-0.57,0.12c-0.11,0.14,0.55,0.25,0.3,0.4 C7.78,8.01,7.64,8.14,7.47,8.04C7.1,7.83,7.18,7.84,6.92,7.9C6.86,7.91,6.83,7.94,6.82,7.97V8.2c0,0.06-0.08,0.1-0.18,0.1 c-0.54,0-0.8,0.03-0.8-0.1c0-0.23,0.02-0.27-0.1-0.3c-0.1-0.02-0.19-0.06-0.28-0.01C5.28,8,5.11,8.14,4.95,8.04 c-0.38-0.22-0.61-0.3-0.44-0.4C4.94,7.39,4.84,7.47,4.73,7.27z M7.21,6.9C7.1,6.58,6.53,6.4,6.02,6.52 C5.63,6.6,5.39,6.84,5.47,7.08c0.1,0.32,0.67,0.5,1.19,0.38C7.05,7.38,7.28,7.13,7.21,6.9z"/></g><g><path fill="#13027B" fill-rule="evenodd" d="M19.41,7.03c-0.06,0.28,0.05,0.53,0.27,0.67l-1.89-1.08 C18.59,5.85,19.57,6.32,19.41,7.03z" clip-rule="evenodd"/><path fill="#13027B" d="M17.22,15.68c0.12,0.07,0.12,0.18,0,0.25l-6.41,3.73c-0.12,0.07-0.32,0.07-0.44,0 l-9.55-5.51c-0.12-0.07-0.12-0.18,0-0.25l6.41-3.73c0.12-0.07,0.32-0.07,0.44,0L17.22,15.68z" opacity=".2"/><g><g><g><linearGradient id="SVGID_5_" x1="17.08" x2="9.128" y1="5.808" y2="10.707" gradientUnits="userSpaceOnUse"><stop offset="0" style="stop-color:#093cc3"/><stop offset="1" style="stop-color:#2787ff"/><stop offset="1" style="stop-color:#2787ff"/></linearGradient><path fill="url(#SVGID_5_)" d="M19.21,6.91c-1.71,8.81-1.49,8.2-1.85,8.31c0.15-0.04,0,0.51,1.7-8.26 c0.03-0.15-0.05-0.33-0.17-0.4C8.69,0.66,9.32,0.99,9.21,1.02c0.32-0.09-0.74-0.61,9.84,5.49 C19.17,6.58,19.24,6.76,19.21,6.91z"/><g><path fill="#00EBFF" d="M18.9,6.56c0.12,0.07,0.2,0.25,0.17,0.4l-1.57,8.09c-0.03,0.15-0.15,0.22-0.27,0.15L7.67,9.69 c-0.12-0.07-0.2-0.25-0.17-0.4l1.57-8.09c0.03-0.15,0.15-0.22,0.27-0.15L18.9,6.56z"/><linearGradient id="SVGID_6_" x1="7.864" x2="18.79" y1="7.907" y2="7.907" gradientUnits="userSpaceOnUse"><stop offset="0" style="stop-color:#093cc3"/><stop offset="1" style="stop-color:#2787ff"/><stop offset="1" style="stop-color:#2787ff"/></linearGradient><path fill="url(#SVGID_6_)" d="M18.79,6.83l-1.48,7.61L7.86,8.98c1.46-7.53,1.47-7.6,1.48-7.61L18.79,6.83z"/></g></g><g><linearGradient id="SVGID_7_" x1="8.842" x2="9.064" y1="20.037" y2="12.994" gradientUnits="userSpaceOnUse"><stop offset="0" style="stop-color:#001c96"/><stop offset="1" style="stop-color:#157eff"/></linearGradient><path fill="url(#SVGID_7_)" d="M17.31,15.05c0,0.46,0.04,0.52-0.09,0.59c-6.78,3.78-6.55,3.6-6.85,3.43 c-10.39-6-9.64-5.44-9.64-5.81c0,0.11-0.55-0.24,9.64,5.64c0.12,0.07,0.32,0.07,0.44,0C17.62,14.95,17.31,15.16,17.31,15.05z"/><g><polygon fill="#13027B" points="16.82 15.55 16.82 15.77 16.31 16.07 16.31 15.85"/><polygon fill="#13027B" points="16.18 15.92 16.18 16.14 15.67 16.44 15.67 16.22"/></g><linearGradient id="SVGID_8_" x1="-1.675" x2="7.816" y1="20.15" y2="14.833" gradientUnits="userSpaceOnUse"><stop offset="0" style="stop-color:#00ebff"/><stop offset="1" style="stop-color:#157eff"/></linearGradient><path fill="url(#SVGID_8_)" d="M17.22,14.92c0.12,0.07,0.12,0.18,0,0.25l-6.41,3.73c-0.12,0.07-0.32,0.07-0.44,0l-9.55-5.51 c-0.12-0.07-0.12-0.18,0-0.25l6.41-3.73c0.12-0.07,0.32-0.07,0.44,0L17.22,14.92z"/><linearGradient id="SVGID_9_" x1="6.724" x2="5.345" y1="13.588" y2="15.829" gradientUnits="userSpaceOnUse"><stop offset="0" style="stop-color:#00ebff"/><stop offset="1" style="stop-color:#157eff"/></linearGradient><path fill="url(#SVGID_9_)" d="M8.83,15.03c0.12,0.07,0.12,0.02-2.12,1.32c-0.12,0.07,0.09,0.15-3.5-1.92 c-0.12-0.07-0.12-0.02,2.12-1.32C5.45,13.04,5.25,12.96,8.83,15.03z"/><path fill="#13027B" d="M8.15,10.02c0.1,0.06-0.07,0.12-0.19,0.19c-0.09,0.05-0.15,0-0.54-0.23C7.34,9.93,7.47,9.87,7.62,9.79 C7.71,9.74,7.76,9.79,8.15,10.02z M7.31,10.05c-0.09-0.05-0.14,0-0.54,0.23c-0.09,0.05,0.01,0.09,0.4,0.31 c0.09,0.05,0.15,0,0.54-0.23C7.8,10.31,7.7,10.27,7.31,10.05z M6.67,10.42c-0.09-0.05-0.14,0-0.54,0.23 c-0.1,0.06,0.01,0.09,0.69,0.48c0.09,0.05,0.14,0,0.53-0.23C7.46,10.84,7.35,10.81,6.67,10.42z M6.11,12.33 c-0.09-0.05-0.13,0-0.58,0.26c-0.09,0.05,0.01,0.09,0.4,0.31c0.09,0.05,0.12,0.01,0.59-0.26C6.61,12.58,6.49,12.55,6.11,12.33 z M6.84,11.97c-0.09-0.05-0.14,0-0.54,0.23c-0.09,0.05,0.01,0.09,0.4,0.31c0.09,0.05,0.15,0,0.54-0.23 C7.34,12.23,7.23,12.2,6.84,11.97z M7.12,11.42c-0.09-0.05-0.15,0.01-0.54,0.23c-0.09,0.05,0.01,0.09,0.4,0.31 c0.09,0.05,0.15,0,0.54-0.23C7.62,11.67,7.51,11.64,7.12,11.42z M6.04,10.79c-0.09-0.05-0.15,0-0.54,0.23 c-0.1,0.06,0,0.08,0.83,0.56c0.09,0.05,0.14,0,0.54-0.23C6.96,11.29,6.87,11.27,6.04,10.79z M8.41,10.17 c-0.1-0.06-0.21,0.04-0.32,0.11C8,10.34,8.1,10.37,8.49,10.59c0.09,0.05,0.18-0.02,0.32-0.11C8.91,10.43,8.8,10.4,8.41,10.17z M9.08,10.56c-0.09-0.05-0.18,0.02-0.32,0.11c-0.09,0.05,0.01,0.09,0.4,0.31c0.09,0.05,0.18-0.02,0.32-0.11 C9.57,10.81,9.47,10.78,9.08,10.56z M7.97,10.43c-0.09-0.05-0.14,0-0.54,0.23c-0.09,0.05,0.01,0.09,0.4,0.31 c0.09,0.05,0.15,0,0.54-0.23C8.47,10.69,8.36,10.66,7.97,10.43z M8.61,10.8c-0.09-0.05-0.14,0-0.54,0.23 c-0.09,0.05,0.01,0.09,0.4,0.31c0.09,0.05,0.15,0,0.54-0.23C9.1,11.06,9,11.02,8.61,10.8z M4.75,11.54 c-0.09-0.05-0.13,0-0.58,0.26c-0.09,0.05,0.01,0.09,0.4,0.31c0.09,0.05,0.12,0.01,0.59-0.26C5.24,11.8,5.13,11.76,4.75,11.54z M5.43,11.94c-0.09-0.05-0.12-0.01-0.59,0.26c-0.09,0.05,0.01,0.09,0.4,0.31c0.09,0.05,0.12,0.01,0.59-0.26 C5.93,12.19,5.81,12.15,5.43,11.94z M5.42,11.17c-0.09-0.05-0.14,0-0.54,0.23c-0.1,0.06-0.03,0.06,1.07,0.7 c0.09,0.05,0.14,0,0.53-0.23C6.59,11.81,6.52,11.81,5.42,11.17z M7.75,11.78c-0.09-0.05-0.15,0.01-0.54,0.23 c-0.09,0.05,0.01,0.09,0.4,0.31c0.09,0.05,0.14,0,0.54-0.23C8.24,12.03,8.11,11.98,7.75,11.78z M8.24,11.32 c-0.09-0.05-0.15,0-0.54,0.23c-0.09,0.05,0.01,0.09,0.4,0.31c0.09,0.05,0.15,0,0.54-0.23C8.73,11.58,8.63,11.55,8.24,11.32z M7.62,10.96c-0.09-0.05-0.15,0.01-0.54,0.23c-0.09,0.05,0.01,0.09,0.4,0.31c0.09,0.05,0.14,0,0.54-0.23 C8.11,11.22,8,11.19,7.62,10.96z M9.74,10.94c-0.1-0.06-0.21,0.04-0.32,0.11c-0.09,0.05,0.01,0.09,0.4,0.31 c0.1,0.06,0.21-0.04,0.32-0.11C10.23,11.19,10.13,11.16,9.74,10.94z M8.87,11.69c-0.09-0.05-0.15,0-0.54,0.23 c-0.09,0.05,0.01,0.09,0.4,0.31c0.09,0.05,0.14,0,0.53-0.23C9.37,11.95,9.27,11.91,8.87,11.69z M8.38,12.14 c-0.09-0.05-0.15,0.01-0.54,0.23c-0.09,0.05,0.01,0.09,0.4,0.31c0.09,0.05,0.14,0,0.54-0.23C8.88,12.4,8.77,12.37,8.38,12.14z M12.38,12.46c-0.09-0.05-0.18,0.02-0.32,0.11c-0.09,0.05,0.01,0.09,0.4,0.31c0.09,0.05,0.18-0.02,0.32-0.11 C12.88,12.72,12.77,12.69,12.38,12.46z M6.73,12.69c-0.09-0.05-0.13,0-0.58,0.26C6.05,13,6.14,13.02,6.68,13.33 c0.09,0.05,0.12,0.01,0.59-0.26C7.36,13.01,7.23,12.97,6.73,12.69z M11.39,15.38c-0.09-0.05-0.13,0-0.58,0.26 c-0.09,0.05,0.02,0.09,0.41,0.32c0.09,0.05,0.12,0.01,0.59-0.26C11.9,15.64,11.77,15.6,11.39,15.38z M10.61,14.93 c-0.09-0.05-0.13,0-0.58,0.26c-0.09,0.05-0.01,0.07,0.53,0.38c0.09,0.05,0.12,0.01,0.59-0.26 C11.23,15.26,11.13,15.23,10.61,14.93z M11.29,14.54c-0.09-0.05-0.14,0-0.53,0.23c-0.09,0.05,0.01,0.09,0.4,0.31 c0.09,0.05,0.14,0,0.54-0.23C11.78,14.79,11.68,14.76,11.29,14.54z M13.7,13.23c-0.1-0.06-0.21,0.04-0.32,0.11 c-0.09,0.05,0.01,0.09,0.4,0.31c0.1,0.06,0.21-0.04,0.32-0.11C14.2,13.49,14.09,13.45,13.7,13.23z M13.04,12.85 c-0.1-0.06-0.21,0.04-0.32,0.11c-0.09,0.05,0.01,0.09,0.4,0.31c0.1,0.06,0.21-0.04,0.32-0.11 C13.54,13.1,13.43,13.07,13.04,12.85z M12.68,13.89c-0.09-0.05-0.15,0.01-0.54,0.23c-0.09,0.05,0.01,0.09,0.4,0.31 c0.09,0.05,0.14,0,0.53-0.23C13.18,14.15,13.07,14.11,12.68,13.89z M12.19,14.34c-0.09-0.05-0.15,0.01-0.54,0.23 c-0.09,0.05,0.01,0.09,0.4,0.31c0.09,0.05,0.14,0,0.53-0.23C12.68,14.6,12.58,14.56,12.19,14.34z M14.2,15.5 c-0.09-0.05-0.15,0.01-0.54,0.23c-0.1,0.06,0,0.08,0.83,0.56c0.09,0.05,0.14,0,0.53-0.23C15.12,16,15.03,15.98,14.2,15.5z M15.03,13.99c-0.1-0.06-0.21,0.04-0.32,0.11c-0.09,0.05,0.01,0.09,0.4,0.31c0.1,0.06,0.21-0.04,0.32-0.11 C15.52,14.25,15.42,14.22,15.03,13.99z M12.65,15.33c-0.09-0.05-0.14,0-0.54,0.23c-0.09,0.05,0.01,0.09,0.4,0.31 c0.09,0.05,0.15-0.01,0.54-0.23C13.15,15.58,13.04,15.55,12.65,15.33z M12.87,14.74c-0.09-0.05-0.15,0-0.54,0.23 c-0.09,0.05,0.01,0.09,0.4,0.31c0.09,0.05,0.14,0,0.54-0.23C13.37,14.99,13.26,14.96,12.87,14.74z M13.69,13.73 c-0.09-0.05-0.14,0-0.53,0.23c-0.09,0.05,0.01,0.09,0.4,0.31c0.09,0.05,0.15,0,0.54-0.23C14.18,13.99,14.07,13.95,13.69,13.73 z M14.32,14.1c-0.09-0.05-0.15,0-0.54,0.23c-0.09,0.05,0.01,0.09,0.4,0.31c0.09,0.05,0.15,0,0.54-0.23 C14.81,14.35,14.71,14.32,14.32,14.1z M15.69,14.37c-0.1-0.06-0.21,0.04-0.32,0.11c-0.09,0.05,0.01,0.09,0.4,0.31 c0.09,0.05,0.18-0.02,0.32-0.11C16.18,14.63,16.08,14.6,15.69,14.37z M13.32,14.25c-0.09-0.05-0.14,0-0.54,0.23 c-0.09,0.05,0.01,0.09,0.4,0.31c0.09,0.05,0.14,0,0.54-0.23C13.81,14.51,13.71,14.48,13.32,14.25z M14.99,14.48 c-0.09-0.05-0.15,0-0.54,0.23c-0.09,0.05,0.01,0.09,0.4,0.31c0.09,0.05,0.14,0,0.54-0.23C15.49,14.74,15.38,14.71,14.99,14.48 z M16.35,14.76c-0.09-0.05-0.18,0.02-0.32,0.11c-0.09,0.05,0.01,0.09,0.4,0.31c0.1,0.06,0.21-0.04,0.32-0.11 C16.84,15.01,16.74,14.98,16.35,14.76z M14,14.65c-0.09-0.05-0.15,0-0.54,0.23c-0.09,0.05,0.01,0.09,0.4,0.31 c0.09,0.05,0.14,0,0.54-0.23C14.49,14.91,14.39,14.87,14,14.65z M15.62,14.84c-0.09-0.05-0.15,0-0.54,0.23 c-0.1,0.06,0.02,0.09,0.69,0.48c0.09,0.05,0.14,0,0.53-0.23C16.41,15.27,16.3,15.24,15.62,14.84z M14.64,15.02 c-0.09-0.05-0.14,0-0.54,0.23c-0.09,0.05,0.01,0.09,0.4,0.31c0.09,0.05,0.14,0,0.53-0.23C15.13,15.27,15.03,15.24,14.64,15.02 z M15.27,15.38c-0.09-0.05-0.15,0-0.54,0.23c-0.09,0.05,0.01,0.09,0.4,0.31c0.09,0.05,0.14,0,0.53-0.23 C15.76,15.64,15.66,15.61,15.27,15.38z M11.15,12.26c-0.09-0.05-0.14,0-0.53,0.23c-0.09,0.05,0.01,0.09,0.4,0.31 c0.09,0.05,0.14,0,0.54-0.23C11.64,12.52,11.54,12.49,11.15,12.26z M10.14,12.42c-0.09-0.05-0.15,0.01-0.54,0.23 c-0.09,0.05,0.01,0.09,0.4,0.31c0.09,0.05,0.14,0,0.53-0.23C10.64,12.68,10.53,12.65,10.14,12.42z M11.78,12.63 c-0.09-0.05-0.15,0.01-0.54,0.23c-0.09,0.05,0.01,0.09,0.4,0.31c0.09,0.05,0.15-0.01,0.54-0.23 C12.28,12.89,12.17,12.85,11.78,12.63z M10.78,12.79c-0.09-0.05-0.15,0.01-0.54,0.23c-0.09,0.05,0.01,0.09,0.4,0.31 c0.09,0.05,0.14,0,0.54-0.23C11.27,13.05,11.17,13.01,10.78,12.79z M9.65,12.88c-0.09-0.05-0.15,0.01-0.54,0.23 c-0.09,0.05,0.01,0.09,0.4,0.31c0.09,0.05,0.14,0,0.53-0.23C10.14,13.13,10.04,13.1,9.65,12.88z M12.42,13 c-0.09-0.05-0.14,0-0.54,0.23c-0.09,0.05,0.01,0.09,0.4,0.31c0.09,0.05,0.14,0,0.54-0.23C12.91,13.25,12.81,13.22,12.42,13z M8.75,13.07c-0.09-0.05-0.14,0-0.54,0.23c-0.09,0.05,0.01,0.09,0.4,0.31c0.09,0.05,0.15,0,0.54-0.23 C9.24,13.33,9.14,13.3,8.75,13.07z M11.41,13.16c-0.09-0.05-0.15,0.01-0.54,0.23c-0.09,0.05,0.01,0.09,0.4,0.31 c0.09,0.05,0.14,0,0.53-0.23C11.91,13.41,11.8,13.38,11.41,13.16z M10.29,13.24c-0.09-0.05-0.15,0.01-0.54,0.23 c-0.09,0.05,0.01,0.09,0.4,0.31c0.09,0.05,0.14,0,0.53-0.23C10.78,13.5,10.65,13.45,10.29,13.24z M13.05,13.36 c-0.09-0.05-0.15,0-0.54,0.23c-0.09,0.05,0.01,0.09,0.4,0.31c0.09,0.05,0.15,0,0.54-0.23C13.55,13.62,13.44,13.59,13.05,13.36 z M9.38,13.44c-0.09-0.05-0.15,0.01-0.54,0.23c-0.09,0.05,0.01,0.09,0.4,0.31c0.09,0.05,0.15,0,0.54-0.23 C9.88,13.7,9.77,13.66,9.38,13.44z M12.05,13.52c-0.09-0.05-0.15,0-0.54,0.23c-0.09,0.05,0.01,0.09,0.4,0.31 c0.09,0.05,0.14,0,0.53-0.23C12.54,13.78,12.44,13.75,12.05,13.52z M10.92,13.61c-0.09-0.05-0.15,0.01-0.54,0.23 c-0.09,0.05,0.01,0.09,0.4,0.31c0.09,0.05,0.14,0,0.53-0.23C11.41,13.86,11.31,13.83,10.92,13.61z M10.02,13.8 c-0.09-0.05-0.14,0-0.53,0.23c-0.09,0.05,0.01,0.09,0.4,0.31c0.09,0.05,0.14,0,0.53-0.23C10.51,14.06,10.41,14.03,10.02,13.8z M11.56,13.97c-0.09-0.05-0.15,0.01-0.54,0.23c-0.09,0.05,0.01,0.09,0.4,0.31c0.09,0.05,0.14,0,0.54-0.23 C12.05,14.23,11.92,14.18,11.56,13.97z M10.65,14.17c-0.09-0.05-0.14,0-0.53,0.23c-0.09,0.05,0.01,0.09,0.4,0.31 c0.09,0.05,0.15-0.01,0.54-0.23C11.15,14.43,11.04,14.39,10.65,14.17z M7.55,13.16c-0.09-0.05-0.12-0.01-0.59,0.26 c-0.1,0.06-0.2-0.04,2.73,1.65c0.09,0.05,0.12,0.01,0.59-0.26C10.37,14.75,10.48,14.85,7.55,13.16z M11.72,12.08 c-0.09-0.05-0.18,0.02-0.32,0.11c-0.09,0.05,0.01,0.09,0.4,0.31c0.1,0.06,0.2-0.04,0.32-0.11 C12.21,12.34,12.11,12.31,11.72,12.08z M11.06,11.7c-0.1-0.06-0.21,0.04-0.32,0.11c-0.09,0.05,0.01,0.09,0.4,0.31 c0.1,0.06,0.21-0.04,0.32-0.11C11.55,11.96,11.45,11.93,11.06,11.7z M10.4,11.32c-0.1-0.06-0.21,0.04-0.32,0.11 c-0.09,0.05,0.01,0.09,0.4,0.31c0.1,0.06,0.21-0.04,0.32-0.11C10.89,11.58,10.79,11.54,10.4,11.32z M9.24,11.16 c-0.09-0.05-0.15,0-0.54,0.23c-0.09,0.05,0.01,0.09,0.4,0.31c0.09,0.05,0.15,0,0.54-0.23C9.74,11.42,9.63,11.39,9.24,11.16z M9.88,11.53c-0.09-0.05-0.14,0-0.53,0.23c-0.09,0.05,0.01,0.09,0.4,0.31c0.09,0.05,0.14,0,0.54-0.23 C10.37,11.79,10.27,11.75,9.88,11.53z M8.11,12.71c-0.09-0.05-0.15,0-0.54,0.23c-0.09,0.05,0.01,0.09,0.4,0.31 c0.09,0.05,0.15,0,0.54-0.23C8.61,12.96,8.5,12.93,8.11,12.71z M10.51,11.9c-0.09-0.05-0.15,0.01-0.54,0.23 c-0.09,0.05,0.01,0.09,0.4,0.31c0.09,0.05,0.15,0,0.54-0.23C11.01,12.15,10.9,12.12,10.51,11.9z M9.51,12.06 c-0.09-0.05-0.15,0-0.54,0.23c-0.09,0.05,0.01,0.09,0.4,0.31c0.09,0.05,0.14,0,0.54-0.23C10,12.31,9.9,12.28,9.51,12.06z M9.02,12.51c-0.09-0.05-0.15,0.01-0.54,0.23c-0.09,0.05,0.01,0.09,0.4,0.31c0.09,0.05,0.14,0,0.54-0.23 C9.51,12.76,9.38,12.72,9.02,12.51z M7.48,12.34c-0.09-0.05-0.14,0-0.54,0.23c-0.09,0.05,0.01,0.09,0.4,0.31 c0.09,0.05,0.15,0,0.54-0.23C7.97,12.6,7.87,12.56,7.48,12.34z M13.56,15.13c-0.09-0.05-0.15,0.01-0.54,0.23 c-0.09,0.05,0.01,0.09,0.4,0.31c0.09,0.05,0.14,0,0.53-0.23C14.06,15.39,13.92,15.34,13.56,15.13z M13.27,15.7 c-0.09-0.05-0.14,0-0.54,0.23c-0.1,0.06-0.03,0.06,1.12,0.72c0.09,0.05,0.14,0,0.53-0.23C14.49,16.37,14.42,16.37,13.27,15.7z M12.71,16.14c-0.09-0.05-0.13,0-0.58,0.26c-0.09,0.05,0.02,0.09,0.41,0.32c0.09,0.05,0.12,0.01,0.59-0.26 C13.22,16.4,13.09,16.36,12.71,16.14z M11.82,15.92c-0.1-0.06-0.19,0.03-0.33,0.11c-0.09,0.05,0.01,0.08,0.41,0.32 c0.1,0.06,0.2-0.03,0.33-0.11C12.33,16.18,12.21,16.15,11.82,15.92z M13.1,16.66c-0.1-0.06-0.2,0.04-0.33,0.11 c-0.09,0.05,0.02,0.09,0.41,0.32c0.1,0.06,0.2-0.03,0.33-0.11C13.6,16.92,13.49,16.88,13.1,16.66z M14.37,13.61 c-0.1-0.06-0.21,0.04-0.32,0.11c-0.09,0.05,0.01,0.09,0.4,0.31c0.1,0.06,0.21-0.04,0.32-0.11 C14.86,13.87,14.76,13.84,14.37,13.61z M11.97,14.93c-0.09-0.05-0.15,0-0.54,0.23c-0.09,0.05,0.02,0.09,0.4,0.31 c0.09,0.05,0.15,0,0.54-0.23C12.46,15.19,12.36,15.16,11.97,14.93z"/></g></g><path fill="#34495D" d="M8.63,5.04C7.99,8.31,8.62,5.04,8.63,5.04L8.63,5.04z"/><path fill="#34495D" d="M8.27,6.87C8.67,4.83,7.3,11.9,8.27,6.87L8.27,6.87z"/><path fill="#34495D" d="M8.63,5.04c0,0-0.71,3.66-0.71,3.66C7.92,8.69,8.63,5.04,8.63,5.04z"/><path fill="#34495D" d="M8.27,6.87C7.47,11.01,8.27,6.85,8.27,6.87L8.27,6.87z"/><g><path fill="#00EBFF" d="M9.83,8.41C9.94,8.48,9.9,8.52,9.7,9.63C9.67,9.78,9.62,9.7,8.78,9.19C8.67,9.12,8.7,9.09,8.91,7.98 C8.94,7.83,8.99,7.9,9.83,8.41z"/><path fill="#BBFAFF" d="M9.7,9.12c-0.16-0.1-0.12-0.04-0.17-0.26C9.52,8.78,9.47,8.91,9.41,9.03C9.32,8.1,9.38,8.16,9.1,8.98 C9.04,8.43,9.08,8.46,8.93,8.65L8.88,8.62C8.86,8.6,8.85,8.65,8.87,8.66C8.96,8.71,8.93,8.72,9.03,8.6 c0.06,0.66,0,0.69,0.29-0.14c0.09,0.83,0.05,0.77,0.2,0.46c0.04,0.19,0,0.14,0.18,0.24C9.72,9.17,9.73,9.13,9.7,9.12z"/></g><g><path fill="#00EBFF" d="M12.24,9.77c0.11,0.07,0.07,0.11-0.13,1.22c-0.03,0.15-0.08,0.07-0.92-0.44 c-0.11-0.07-0.07-0.1,0.13-1.22C11.35,9.18,11.4,9.26,12.24,9.77z"/><path fill="#BBFAFF" d="M12.11,10.47c-0.16-0.1-0.12-0.04-0.17-0.26c-0.02-0.08-0.07,0.06-0.13,0.18 c-0.1-0.93-0.03-0.88-0.32-0.05c-0.05-0.55-0.01-0.53-0.16-0.34l-0.05-0.03c-0.02-0.01-0.03,0.03-0.01,0.04 c0.09,0.06,0.06,0.06,0.15-0.06c0.06,0.66,0,0.69,0.29-0.14c0.09,0.83,0.05,0.77,0.2,0.46c0.04,0.19,0,0.14,0.18,0.24 C12.13,10.53,12.14,10.48,12.11,10.47z"/></g><g><path fill="#00EBFF" d="M14.51,11.02c0.11,0.07,0.07,0.11-0.13,1.22c-0.03,0.15-0.08,0.07-0.92-0.44 c-0.11-0.07-0.07-0.1,0.13-1.22C13.62,10.44,13.67,10.51,14.51,11.02z"/><path fill="#FFF" d="M14.38,11.73c-0.16-0.1-0.12-0.04-0.17-0.26c-0.02-0.08-0.07,0.06-0.13,0.18 c-0.1-0.93-0.03-0.88-0.32-0.05c-0.05-0.55-0.01-0.53-0.16-0.34l-0.05-0.03c-0.02-0.01-0.03,0.03-0.01,0.04 c0.09,0.06,0.06,0.06,0.15-0.06c0.06,0.66,0,0.69,0.29-0.14c0.09,0.83,0.05,0.77,0.2,0.46c0.04,0.19,0,0.14,0.18,0.24 C14.39,11.78,14.4,11.74,14.38,11.73z"/></g><g opacity=".1"><polygon fill="#BBFAFF" points="19.25 6.71 19.04 7.8 8.34 9.34 7.71 8.98 8.22 6.35 16.56 5.15"/><polygon fill="#BBFAFF" points="18.88 8.64 18.62 9.99 11.28 11.04 9.47 10"/></g><g><path fill="#13027B" d="M15.37,8.43c0.03,0.01,0.2,0.12,0.31,0.24c0.19,0.2,0.58-0.09,0.38-0.29c-1-1.06-1.32,0.55-1.81,0.22 c-0.57-0.37-0.3-2.31-0.99-2.38c-0.43-0.04-0.87,0.71-1.06,0.6c-0.27-0.12-0.53,0.24-0.26,0.37c0.51,0.23,0.95-0.32,1.2-0.52 c0.25,0.58,0.2,1.88,0.8,2.27C14.62,9.39,15.2,8.53,15.37,8.43z"/><path fill="#BBFAFF" d="M11.84,8.07c0.06,0,0.01,0.12,0.57-2.41c0.01-0.04-0.07-0.05-0.08-0.01 C11.78,8.2,11.79,8.07,11.84,8.07z"/><path fill="#BBFAFF" d="M15.48,10.3c0.06,0,0.01,0.12,0.57-2.41c0.01-0.04-0.07-0.05-0.08-0.01 C15.42,10.43,15.43,10.3,15.48,10.3z"/><path fill="#BBFAFF" d="M14.46,9.68c0.06,0,0.01,0.12,0.57-2.41c0.01-0.04-0.07-0.05-0.08-0.01C14.4,9.8,14.41,9.67,14.46,9.68 z"/><path fill="#BBFAFF" d="M12.86,8.7c0.06,0,0.01,0.12,0.57-2.41c0.01-0.04-0.07-0.05-0.08-0.01C12.8,8.82,12.81,8.69,12.86,8.7z"/><g><polygon fill="#BBFAFF" points="15.33 7.77 15.56 7.91 15.6 7.74 15.37 7.6"/><path fill="#BBFAFF" d="M15.09,7.83c0.51,0.31,0.42,0.28,0.44,0.19C15.02,7.71,15.11,7.74,15.09,7.83z"/></g><g><polygon fill="#BBFAFF" points="13.96 7.28 14.19 7.42 14.23 7.24 14 7.1"/><path fill="#BBFAFF" d="M13.73,7.34c0.51,0.31,0.42,0.28,0.44,0.19C13.66,7.21,13.75,7.24,13.73,7.34z"/></g><g><polygon fill="#BBFAFF" points="12.8 5.92 13.03 6.06 13.07 5.88 12.84 5.74"/><path fill="#BBFAFF" d="M12.57,5.98c0.51,0.31,0.42,0.28,0.44,0.19C12.5,5.86,12.59,5.88,12.57,5.98z"/></g><path fill="#BBFAFF" d="M9.98,4.57l1.62,0.83l-0.07,0.38L9.91,4.95L9.98,4.57z M9.44,5.26l1.99,1.02l0.03-0.15L9.47,5.11 L9.44,5.26z M9.36,5.71l1.99,1.02l0.03-0.15L9.39,5.55L9.36,5.71z M9.28,6.16l1.99,1.02l0.03-0.15L9.3,6.01L9.28,6.16z M9.19,6.61l1.99,1.02l0.03-0.15L9.22,6.46L9.19,6.61z M9.12,7.04l1.99,1.02l0.03-0.15L9.14,6.89L9.12,7.04z M9.03,7.49 l1.99,1.02l0.03-0.15L9.06,7.34L9.03,7.49z"/><g><path fill="#DCE0F4" fill-rule="evenodd" d="M10.35,4.01c0.3-0.13,0.15-0.07,0.67-0.3 C10.72,3.84,10.87,3.77,10.35,4.01z" clip-rule="evenodd"/><linearGradient id="SVGID_10_" x1="10.806" x2="11.262" y1="3.919" y2="3.648" gradientUnits="userSpaceOnUse"><stop offset="0" style="stop-color:#093cc3"/><stop offset="1" style="stop-color:#2787ff"/><stop offset="1" style="stop-color:#2787ff"/></linearGradient><path fill="url(#SVGID_10_)" fill-rule="evenodd" d="M10.78,3.81c0.37-0.17,0.15-0.11,0.35,0.04 l-0.24,0.11C10.83,3.91,10.81,3.87,10.78,3.81z" clip-rule="evenodd"/><polygon fill="#DCE0F4" fill-rule="evenodd" points="10.89 3.96 11.13 3.85 11.01 4.46 10.78 4.56" clip-rule="evenodd"/><linearGradient id="SVGID_11_" x1="11.161" x2="10.317" y1="2.692" y2="3.245" gradientUnits="userSpaceOnUse"><stop offset="0" style="stop-color:#093cc3"/><stop offset="1" style="stop-color:#2787ff"/><stop offset="1" style="stop-color:#2787ff"/></linearGradient><path fill="url(#SVGID_11_)" fill-rule="evenodd" d="M10.57,2.85c0.27-0.12,0.43-0.24,0.76-0.03 l-0.24,0.11C10.92,2.82,10.76,2.77,10.57,2.85z" clip-rule="evenodd"/><linearGradient id="SVGID_12_" x1="10.705" x2="11.322" y1="3.667" y2="3.501" gradientUnits="userSpaceOnUse"><stop offset="0" style="stop-color:#001c96"/><stop offset="1" style="stop-color:#157eff"/></linearGradient><path fill="url(#SVGID_12_)" fill-rule="evenodd" d="M11.07,3.4c-0.1,0.06-0.1,0.19-0.06,0.3l-0.24,0.11 C10.67,3.53,10.88,3.49,11.07,3.4z" clip-rule="evenodd"/><polygon fill="#DCE0F4" fill-rule="evenodd" points="11.09 2.92 11.32 2.82 11.21 3.42 10.97 3.53" clip-rule="evenodd"/><linearGradient id="SVGID_13_" x1="11.34" x2="12.515" y1="3.715" y2="3.303" gradientUnits="userSpaceOnUse"><stop offset="0" style="stop-color:#093cc3"/><stop offset="1" style="stop-color:#2787ff"/><stop offset="1" style="stop-color:#2787ff"/></linearGradient><path fill="url(#SVGID_13_)" fill-rule="evenodd" d="M11.09,2.92l0.24-0.11c0.5,0.35,0.7,1.15,0.38,1.57 c-0.1,0.12-0.16,0.13-0.41,0.24C11.81,4.37,11.69,3.34,11.09,2.92z" clip-rule="evenodd"/><linearGradient id="SVGID_14_" x1="10.865" x2="11.302" y1="4.047" y2="3.77" gradientUnits="userSpaceOnUse"><stop offset="0" style="stop-color:#093cc3"/><stop offset="1" style="stop-color:#2787ff"/><stop offset="1" style="stop-color:#2787ff"/></linearGradient><path fill="url(#SVGID_14_)" fill-rule="evenodd" d="M10.89,3.96l0.24-0.11 c0.05,0.03,0.08,0.04,0.14,0.02C11.02,3.98,10.99,4.02,10.89,3.96z" clip-rule="evenodd"/><path fill="#00EBFF" fill-rule="evenodd" d="M11.09,2.92c0.37,0.24,0.6,0.81,0.52,1.26 c-0.09,0.45-0.45,0.62-0.83,0.38l0.11-0.61c0.23,0.15,0.31-0.27,0.08-0.43L11.09,2.92z" clip-rule="evenodd"/><linearGradient id="SVGID_15_" x1="10.011" x2="11.353" y1="4.113" y2="2.457" gradientUnits="userSpaceOnUse"><stop offset="0" style="stop-color:#245df5"/><stop offset="1" style="stop-color:#82b9ff"/></linearGradient><path fill="url(#SVGID_15_)" fill-rule="evenodd" d="M10.35,4.01c-0.32-0.79,0.14-1.48,0.74-1.09 l-0.11,0.61c-0.16-0.1-0.28,0.08-0.19,0.28L10.35,4.01z" clip-rule="evenodd"/><linearGradient id="SVGID_16_" x1="10.547" x2="10.972" y1="4.311" y2="3.653" gradientUnits="userSpaceOnUse"><stop offset="0" style="stop-color:#0135ac"/><stop offset="1" style="stop-color:#001678"/></linearGradient><path fill="url(#SVGID_16_)" fill-rule="evenodd" d="M10.78,4.56c-0.19-0.12-0.34-0.32-0.43-0.55 l0.43-0.2C10.9,4.1,10.95,3.67,10.78,4.56z" clip-rule="evenodd"/><g><path fill-rule="evenodd" d="M11.1,3.72L8.83,4.77C8.73,4.81,8.72,4.75,8.77,4.73 C11.32,3.54,11.08,3.64,11.1,3.72z" clip-rule="evenodd"/><g><path fill="#BBFAFF" fill-rule="evenodd" d="M8.78,4.45C8.9,4.39,8.87,4.39,8.91,4.46 c0.07-0.12,0.04-0.09,0.14-0.14c0.05,0.09,0.02,0.1,0.1-0.05c0.07-0.03,0.03-0.07,0.18,0.19L8.91,4.66L8.78,4.45z" clip-rule="evenodd"/><path fill="#BBFAFF" fill-rule="evenodd" d="M8.69,5.11c0.14-0.06,0.1-0.03,0.17-0.15 c0.04,0.07,0,0.07,0.13,0.01c0.06-0.1,0.04-0.09,0.07-0.03c0.08-0.04,0.02,0.04,0.3-0.41C8.84,4.77,8.99,4.63,8.69,5.11z" clip-rule="evenodd"/></g></g></g></g></g><g><g><linearGradient id="SVGID_17_" x1="16.096" x2="18.78" y1="13.419" y2="1.969" gradientUnits="userSpaceOnUse"><stop offset="0" style="stop-color:#093cc3"/><stop offset="1" style="stop-color:#27a6ff"/></linearGradient><path fill="url(#SVGID_17_)" fill-rule="evenodd" d="M18.9,6.3c-0.25,0-0.5,0.18-0.55,0.4 c-2.06,9.37-0.84,3.88-1.34,6.18c-0.04,0.2-0.25,0.37-0.48,0.4c-0.01,0,0.02,0.01-0.44-0.25c-0.06-0.26,0.31,0.02-1.08-0.78 c0.37-0.17,0.21,0.11,1.64-6.52c0.07-0.31,0.49-0.51,0.76-0.36C19.65,6.61,19.11,6.3,18.9,6.3z" clip-rule="evenodd"/><g><polygon fill="#BBFAFF" fill-rule="evenodd" points="16.11 8.95 16.16 8.73 17.59 9.55 17.54 9.77" clip-rule="evenodd"/><path fill="#BBFAFF" fill-rule="evenodd" d="M16.44,9.62l-0.03,0.14c0,0,0.62,0.35,0.91,0.52l0.03-0.14 C17.05,9.97,16.44,9.62,16.44,9.62z" clip-rule="evenodd"/><path fill="#BBFAFF" fill-rule="evenodd" d="M16.32,10.14l-0.03,0.14c0,0,0.62,0.35,0.91,0.52l0.03-0.14 C16.94,10.49,16.32,10.14,16.32,10.14z" clip-rule="evenodd"/><path fill="#BBFAFF" fill-rule="evenodd" d="M16.21,10.65l-0.03,0.14c0,0,0.62,0.35,0.91,0.52l0.03-0.14 C16.83,11.01,16.21,10.65,16.21,10.65z" clip-rule="evenodd"/><path fill="#BBFAFF" fill-rule="evenodd" d="M16.1,11.17l-0.03,0.14c0,0,0.62,0.35,0.91,0.52l0.03-0.14 C16.72,11.53,16.1,11.17,16.1,11.17z" clip-rule="evenodd"/><path fill="#BBFAFF" fill-rule="evenodd" d="M15.99,11.69l-0.03,0.14c0,0,0.62,0.35,0.91,0.52l0.03-0.14 C16.6,12.04,15.99,11.69,15.99,11.69z" clip-rule="evenodd"/><path fill="#BBFAFF" fill-rule="evenodd" d="M16.93,7.38L16.9,7.53c0,0,0.62,0.35,0.91,0.52l0.03-0.14 C17.55,7.74,16.93,7.38,16.93,7.38z" clip-rule="evenodd"/><path fill="#BBFAFF" fill-rule="evenodd" d="M16.82,7.9l-0.03,0.14c0,0,0.62,0.35,0.91,0.52l0.03-0.14 C17.44,8.26,16.82,7.9,16.82,7.9z" clip-rule="evenodd"/><path fill="#BBFAFF" fill-rule="evenodd" d="M16.71,8.42l-0.03,0.14c0,0,0.62,0.35,0.91,0.52l0.03-0.14 C17.32,8.77,16.71,8.42,16.71,8.42z" clip-rule="evenodd"/><polygon fill="#BBFAFF" fill-rule="evenodd" points="16.04 9.29 15.97 9.63 16.26 9.79 16.34 9.46" clip-rule="evenodd"/><polygon fill="#BBFAFF" fill-rule="evenodd" points="15.93 9.81 15.86 10.14 16.15 10.31 16.22 9.98" clip-rule="evenodd"/><polygon fill="#BBFAFF" fill-rule="evenodd" points="15.82 10.33 15.75 10.66 16.04 10.83 16.11 10.5" clip-rule="evenodd"/><polygon fill="#BBFAFF" fill-rule="evenodd" points="15.71 10.85 15.64 11.18 15.93 11.35 16 11.01" clip-rule="evenodd"/><polygon fill="#BBFAFF" fill-rule="evenodd" points="15.6 11.37 15.53 11.7 15.82 11.87 15.89 11.53" clip-rule="evenodd"/><polygon fill="#BBFAFF" fill-rule="evenodd" points="16.54 7.06 16.47 7.39 16.76 7.56 16.83 7.23" clip-rule="evenodd"/><polygon fill="#BBFAFF" fill-rule="evenodd" points="16.43 7.58 16.36 7.91 16.65 8.08 16.72 7.74" clip-rule="evenodd"/><polygon fill="#BBFAFF" fill-rule="evenodd" points="16.32 8.1 16.25 8.43 16.54 8.6 16.61 8.26" clip-rule="evenodd"/></g><g><path fill="#BBFAFF" d="M16.99,6.78c0.03-0.14-0.21-0.22-0.17-0.44c0.05-0.24,0.4-0.06,0.34,0.22l-0.11-0.06 c0.03-0.13-0.1-0.19-0.12-0.09c-0.03,0.12,0.22,0.21,0.17,0.44c-0.05,0.26-0.41,0.04-0.35-0.24l0.11,0.06 c-0.01,0.07,0,0.12,0.06,0.15C16.95,6.84,16.98,6.83,16.99,6.78z"/><path fill="#BBFAFF" d="M17.48,6.94l-0.17-0.1l-0.04,0.17l0.2,0.12l-0.02,0.11l-0.31-0.18l0.14-0.65l0.31,0.18l-0.02,0.11 l-0.2-0.12l-0.03,0.15C17.53,6.85,17.5,6.8,17.48,6.94z"/><path fill="#BBFAFF" d="M17.95,7.22C17.87,7.6,17.48,7.37,17.56,7c0.04-0.19,0.09-0.39,0.28-0.29 C18.03,6.83,17.99,7.05,17.95,7.22z M17.86,7.05c0.02-0.08,0.02-0.18-0.05-0.22c-0.07-0.04-0.1,0.04-0.12,0.12 c-0.03,0.12-0.08,0.27,0.03,0.33C17.82,7.34,17.84,7.17,17.86,7.05z"/></g></g><path fill="#13027B" fill-rule="evenodd" d="M16.54,13.29c-0.01,0,0.03,0.02-1.67-0.96 c-0.11-0.07-0.19-0.2-0.2-0.35l1.69,0.99C16.37,13.11,16.45,13.23,16.54,13.29z" clip-rule="evenodd"/></g></g><g><linearGradient id="SVGID_18_" x1="5.81" x2="6.156" y1="6.43" y2="6.238" gradientUnits="userSpaceOnUse"><stop offset="0" style="stop-color:#001c96"/><stop offset="1" style="stop-color:#157eff"/></linearGradient><path fill="url(#SVGID_18_)" fill-rule="evenodd" d="M6.47,7C6.19,7.31,5.54,6.17,5.36,5.73 c0.19-0.02,0.33-0.29,0.59,0.05C6.34,6.28,6.43,6.81,6.47,7z" clip-rule="evenodd"/><path fill="#13027B" fill-rule="evenodd" d="M6.47,7C6.19,7.31,5.54,6.17,5.36,5.73 c0.24-0.03,0.35-0.35,0.7,0.2C6.1,6.09,6.11,6.72,6.23,6.86C6.38,7.04,6.43,6.87,6.47,7z" clip-rule="evenodd"/><g><path fill-rule="evenodd" d="M4.66,13.19c-0.12,0-0.31-0.15-0.26-0.33c0.06-0.28-0.05-0.27,0.08-0.61 c0.05-0.13-0.09-0.13,0.34-0.04c0.02,0.87-0.03,0.12,0.01,0.73C4.85,13.05,4.78,13.18,4.66,13.19z" clip-rule="evenodd"/><path fill="#BBFAFF" fill-rule="evenodd" d="M4.66,13.19c-0.12,0-0.31-0.15-0.26-0.33 c0-0.02,0.01-0.05,0.01-0.07c0,0,0.02,0.09,0.01,0.15c-0.01,0.07,0.24,0.36,0.35,0.16c0.04-0.07,0.06-0.14,0.06-0.27 c0,0.05,0.01,0.09,0.01,0.1C4.85,13.05,4.78,13.18,4.66,13.19z" clip-rule="evenodd"/><path fill-rule="evenodd" d="M5.74,12.31c-0.08-0.07-0.11-0.23-0.2-0.28c-0.06-0.01-0.13-0.08-0.15-0.14 c0-0.12,0.02-0.16,0.05-0.24l0.35-0.09c0.01,0.26,0.34,0.52,0.41,0.75C6.27,12.49,5.84,12.41,5.74,12.31z" clip-rule="evenodd"/><path fill="#BBFAFF" fill-rule="evenodd" d="M5.74,12.31c-0.08-0.07-0.11-0.23-0.2-0.28 c-0.06-0.01-0.13-0.08-0.15-0.14c0-0.16,0,0.02,0.14,0.08c0.05,0.02,0.14,0.1,0.19,0.22c0.08,0.19,0.51,0.27,0.49,0.12 C6.27,12.49,5.84,12.41,5.74,12.31z" clip-rule="evenodd"/><linearGradient id="SVGID_19_" x1="5.232" x2="5.811" y1="12.585" y2="6.837" gradientUnits="userSpaceOnUse"><stop offset="0" style="stop-color:#0135ac"/><stop offset="1" style="stop-color:#001678"/></linearGradient><path fill="url(#SVGID_19_)" fill-rule="evenodd" d="M5.85,11.72c-0.11,0.11-0.34,0.08-0.41-0.04 c-0.1-0.92-0.15-1.33-0.05-1.7C5.33,9.5,5.05,8.85,5.12,8.39c0.03-0.2,0.16-0.41,0.2-0.58c0.33,0.4,0.58,0.21,0.71,0.18 C6.03,9.49,5.84,11.18,5.85,11.72z" clip-rule="evenodd"/><path fill="#13027B" fill-rule="evenodd" d="M5.71,8.32c0,0.57-0.07,1.09-0.09,1.66 c-0.14,0.99-0.19,0.81-0.09,1.78c-0.04-0.02-0.07-0.04-0.09-0.08c-0.1-0.92-0.15-1.33-0.05-1.7C5.33,9.5,5.06,8.84,5.12,8.39 C5.15,8.19,5.71,8.32,5.71,8.32z" clip-rule="evenodd"/><linearGradient id="SVGID_20_" x1="4.79" x2="5.369" y1="12.54" y2="6.793" gradientUnits="userSpaceOnUse"><stop offset="0" style="stop-color:#0135ac"/><stop offset="1" style="stop-color:#001678"/></linearGradient><path fill="url(#SVGID_20_)" fill-rule="evenodd" d="M5.81,8.04c-0.13,0.76-0.73,2.42-0.96,4.24 c-0.13,0.07-0.35,0.06-0.4-0.06c0-0.81-0.03-1.47,0.19-1.96C4.61,9.23,4.52,8.94,4.66,8.49c0.06-0.2,0.22-0.39,0.28-0.56 c0.13,0.2,0.27,0.32,0.51,0.3C5.49,8.23,5.73,8.06,5.81,8.04z" clip-rule="evenodd"/><path fill="#13027B" fill-rule="evenodd" d="M5.98,7.96C5.22,8.1,5.52,8.08,4.9,8.03 c-0.08,0.14-0.19,0.3-0.24,0.46c-0.14,0.45-0.05,0.74-0.02,1.77c-0.22,0.5-0.19,1.18-0.19,1.96c0.02,0.04,0.05,0.06,0.09,0.08 c0,0-0.04-1.4,0.24-2.03C4.76,10.24,4.41,8.96,4.8,8.4C5.05,8.53,5.88,8.5,6,8.15C5.98,7.98,5.99,8.02,5.98,7.96z" clip-rule="evenodd"/></g><linearGradient id="SVGID_21_" x1="3.924" x2="6.268" y1="7.191" y2="6.933" gradientUnits="userSpaceOnUse"><stop offset="0" style="stop-color:#001c96"/><stop offset="1" style="stop-color:#157eff"/></linearGradient><path fill="url(#SVGID_21_)" fill-rule="evenodd" d="M6.09,7.77c0,0.08-0.05,0.18-0.04,0.29 C5.94,8.47,4.92,8.5,4.77,8.22C4.78,8.18,4.79,8.14,4.79,8.1C4.67,7.98,4.81,7.66,4.68,7.34c-0.3-0.75-0.71-0.95,0.14-1.46 c0.22-0.13,0.72-0.32,0.94-0.2C6.15,5.9,6.1,6.83,6.08,7.2C6.08,7.4,6.1,7.58,6.09,7.77z" clip-rule="evenodd"/><path fill="#13027B" fill-rule="evenodd" d="M5.92,8.03c-0.2,0.19-0.46,0.24-0.85,0.21 C5.1,8.28,5.13,8.34,5.15,8.4C4.97,8.38,4.82,8.32,4.77,8.22C4.78,8.18,4.79,8.14,4.79,8.1C4.67,7.98,4.81,7.66,4.68,7.34 C4.46,6.79,4.27,6.68,4.3,6.41C4.31,6.4,5.32,6.9,5.32,6.9l0.6-0.4C5.89,7.86,5.18,7.27,4.98,7.26c-0.11,0-0.04,0.27-0.03,0.53 c0.01,0.26,0.01,0.34,0.1,0.38C5.15,8.22,5.56,8.26,5.92,8.03z" clip-rule="evenodd"/><path fill="#13027B" fill-rule="evenodd" d="M5.55,6.07c0,0-0.2,0.39-0.23,0.48 c-0.15-0.1-0.21-0.13-0.21-0.13S4.86,6.19,4.72,6.19C4.87,6.53,5.19,7.18,5.4,6.94C5.62,6.69,5.7,6.28,5.7,6.28L5.55,6.07z" clip-rule="evenodd"/><g><path fill="#F58872" fill-rule="evenodd" d="M5.49,5.76c0,0.03-0.03,0.13-0.03,0.17 c0,0.01-0.01,0.09-0.01,0.11C5.28,6.01,5.03,5.9,5,5.73c0.01-0.11,0.01-0.19-0.02-0.36l0.47,0.09C5.46,5.53,5.51,5.77,5.49,5.76 z" clip-rule="evenodd"/><path fill="#F58872" fill-rule="evenodd" d="M5.3,6C5.17,6.01,5.02,5.97,5,5.87C5,5.83,5,5.78,5,5.73 C5.02,5.86,5.18,5.95,5.3,6z" clip-rule="evenodd"/><path fill="#F58872" fill-rule="evenodd" d="M5.46,5.94c0-0.02,0.03-0.14,0.03-0.17 C5.5,5.76,5.53,5.87,5.46,5.94z" clip-rule="evenodd"/><path fill="#F99B80" fill-rule="evenodd" d="M5.79,5.3c0,0.11-0.04,0.34-0.07,0.38 C5.7,5.71,5.57,5.75,5.52,5.75C5.12,5.59,5.2,5.7,5.05,5.35c-0.24-0.1-0.24-0.32-0.14-0.51C5.07,4.54,5.61,4.51,5.74,5 c0.01,0.04,0,0.07,0,0.14C5.74,5.2,5.79,5.21,5.79,5.3z" clip-rule="evenodd"/><path fill="#F17463" fill-rule="evenodd" d="M5.49,5.74c-0.06,0.04-0.08,0.08-0.12,0.1 C5.34,5.86,5.22,5.77,5.17,5.79C5.12,5.81,5.04,5.81,5,5.83c0-0.17,0.03-0.24-0.02-0.46c0.01,0,0.07,0.09,0.14,0.09 C5.15,5.48,5.17,5.53,5.2,5.57C5.23,5.62,5.44,5.7,5.49,5.74z" clip-rule="evenodd"/><path fill="#F17463" fill-rule="evenodd" d="M5.63,4.93c-0.05,0.1-0.38,0.07-0.37,0.07 c-0.05,0.29,0.05,0.4-0.08,0.35c-0.05-0.13,0.04-0.2-0.08-0.2c-0.11,0-0.2,0-0.16,0.13c-0.13-0.1-0.11-0.31-0.03-0.45 C5.07,4.75,5.39,4.7,5.56,4.69L5.63,4.93z" clip-rule="evenodd"/><path fill="#142033" fill-rule="evenodd" d="M4.9,4.62C4.87,4.61,4.84,4.61,4.81,4.61 c0.05-0.02,0.07-0.02,0.1,0c0-0.01-0.03-0.03-0.02-0.09c0,0.04,0.02,0.08,0.02,0.07C4.91,4.56,4.92,4.53,4.97,4.52 C4.92,4.53,4.92,4.57,4.93,4.59c0.16-0.25,0.6-0.23,0.79,0.08c0,0,0.04-0.05-0.05-0.14c0.12,0.06,0.15,0.23,0.06,0.33 C5.63,4.97,5.35,5.05,5.2,4.92c0.04,0.09-0.01,0.29,0.01,0.36c0.02,0.07,0.03,0.08-0.03,0.08C5.13,5.36,5.15,5.25,5.06,5.22 C4.98,5.19,5.01,5.47,5.05,5.54C4.87,5.43,4.5,4.79,4.9,4.62z" clip-rule="evenodd"/><path fill="#081521" fill-rule="evenodd" d="M4.78,5.15c0.14,0.32,0.24,0.37,0.27,0.39 C5.01,5.47,4.98,5.19,5.06,5.22c0.08,0.03,0.06,0.13,0.12,0.14c0.05,0.01,0.04-0.01,0.03-0.08C5.19,5.21,5.24,5.01,5.2,4.92 C5.32,5.03,5.51,5,5.64,4.93C5.63,4.93,5.31,5.04,5,4.69c0.18,0.3,0.16,0.32,0.16,0.53C5.01,5.06,4.92,5.28,4.78,5.15z" clip-rule="evenodd"/><path fill="#FFA698" fill-rule="evenodd" d="M4.99,5.37C5,5.42,5.04,5.41,5.06,5.45 C5.08,5.49,5.12,5.5,5.15,5.5c0.06-0.01,0.01-0.09,0-0.13C5.15,5.18,4.9,5.13,4.99,5.37z" clip-rule="evenodd"/></g><g><path fill="#F99B80" fill-rule="evenodd" d="M6.53,5.68c-0.06,0.03-0.18,0.04-0.26,0 c0-0.22-0.02-0.15-0.07-0.22C6.14,5.38,6.14,5.1,6.17,5.07C6.84,4.85,6.54,5.34,6.53,5.68z" clip-rule="evenodd"/><path fill="#F17463" fill-rule="evenodd" d="M6.23,5.35C6.3,5.46,6.32,5.36,6.41,5.56 C6.42,5.3,6.64,5.43,6.54,5.13c-0.02-0.05-0.1-0.04-0.21-0.02c-0.07,0.01-0.15,0-0.17,0.08C6.18,5.26,6.2,5.29,6.23,5.35z" clip-rule="evenodd"/></g><linearGradient id="SVGID_22_" x1="6.149" x2="6.616" y1="6.315" y2="6.315" gradientUnits="userSpaceOnUse"><stop offset="0" style="stop-color:#001c96"/><stop offset="1" style="stop-color:#157eff"/></linearGradient><path fill="url(#SVGID_22_)" fill-rule="evenodd" d="M6.27,5.56C6.28,5.64,6.5,5.65,6.54,5.61l0,0.1 c0.08,0.16,0.12,1.2-0.04,1.32C6.46,7.07,6.35,7.09,6.27,7.04C6.19,7,6.15,6.68,6.15,6.49c0-0.2,0.03-0.48,0.08-0.74 C6.23,5.71,6.27,5.7,6.27,5.56z" clip-rule="evenodd"/><g><path fill="#2B3D50" fill-rule="evenodd" d="M5.83,5.07l0.74,0.06L6.51,5.44C6.28,5.38,6.02,5.32,5.8,5.25 C5.73,5.23,5.76,5.07,5.83,5.07z" clip-rule="evenodd"/><path fill="#34495D" fill-rule="evenodd" d="M6.5,5.16C6.38,5.29,6.47,5.54,6.58,5.41 C6.7,5.27,6.61,5.03,6.5,5.16z" clip-rule="evenodd"/><path fill="#BDC3C7" fill-rule="evenodd" d="M6.51,5.18c-0.09,0.11-0.02,0.31,0.07,0.2 C6.67,5.28,6.6,5.08,6.51,5.18z" clip-rule="evenodd"/></g><path fill="#F99B80" fill-rule="evenodd" d="M6.57,5.06C6.54,5,6.21,5,6.15,5.03 C6.1,5.06,6.08,5.12,6.09,5.19c0,0.02,0.04,0.03,0.12,0.03c0.06,0,0.15,0.03,0.19,0.02c0.02-0.01,0.04-0.1,0.05-0.13 C6.46,5.06,6.54,5.05,6.57,5.06z" clip-rule="evenodd"/><g><path fill="#2B3D50" fill-rule="evenodd" d="M5.53,5.15l0.74,0.06L6.2,5.53C5.97,5.47,5.72,5.41,5.49,5.34 C5.43,5.32,5.45,5.16,5.53,5.15z" clip-rule="evenodd"/><path fill="#34495D" fill-rule="evenodd" d="M6.19,5.24C6.08,5.38,6.16,5.62,6.28,5.49 C6.4,5.36,6.31,5.11,6.19,5.24z" clip-rule="evenodd"/><path fill="#BDC3C7" fill-rule="evenodd" d="M6.21,5.27c-0.09,0.11-0.02,0.31,0.07,0.2 C6.37,5.37,6.3,5.17,6.21,5.27z" clip-rule="evenodd"/></g><path fill="#F99B80" fill-rule="evenodd" d="M5.93,5.87C5.87,5.89,5.75,5.88,5.68,5.83 c0.03-0.15,0.03-0.15-0.03-0.25C5.6,5.48,5.66,5.17,5.7,5.15c0.06-0.01,0.28-0.03,0.4,0.04C6.12,5.23,6.05,5.2,6.03,5.36 C6.02,5.48,6.1,5.51,5.99,5.67C5.97,5.71,5.95,5.77,5.93,5.87z" clip-rule="evenodd"/><path fill="#13027B" fill-rule="evenodd" d="M5.38,6.09C5.32,6.15,5.31,6.2,5.33,6.28 C5.09,6.21,4.93,6.1,4.89,6.01c-0.03-0.06,0-0.17,0.03-0.23c0,0,0.21,0.12,0.21,0.12c0.09,0.07,0.21,0.12,0.32,0.14 c0-0.02,0.01-0.04,0.01-0.07C5.57,6,5.53,5.98,5.6,6.07C5.62,6.2,5.62,6.09,5.38,6.09z" clip-rule="evenodd"/><path fill="#BBFAFF" fill-rule="evenodd" d="M5.63,6.1C5.44,5.98,5.42,6.17,5.46,5.94 c0-0.02,0.03-0.14,0.03-0.17C5.54,5.78,5.58,6,5.63,6.1z" clip-rule="evenodd"/><linearGradient id="SVGID_23_" x1="4.3" x2="5.966" y1="6.508" y2="6.508" gradientUnits="userSpaceOnUse"><stop offset="0" style="stop-color:#001c96"/><stop offset="1" style="stop-color:#157eff"/></linearGradient><path fill="url(#SVGID_23_)" fill-rule="evenodd" d="M5.75,7.16C5.72,7.26,5.59,7.35,5.4,7.28 C5.23,7.22,4.85,7.15,4.44,6.81C4.19,6.6,4.25,5.93,4.78,6.22C4.91,6.29,5,6.38,5.06,6.47c0.07,0.04,0.19,0.1,0.31,0.17 c0.12-0.51,0.31-0.83,0.33-0.93c0,0.06,0.22,0.11,0.27,0.07l-0.01,0.1C5.99,6,5.93,6.8,5.75,7.16z" clip-rule="evenodd"/><path fill="#BBFAFF" fill-rule="evenodd" d="M5.45,6.05C5.42,6.09,5.34,6.17,5.35,6.23 C5.17,6.19,5.01,6.11,4.93,5.95C4.87,5.85,4.91,5.75,5,5.7C5,5.88,5.29,6.02,5.45,6.05z" clip-rule="evenodd"/></g></g></g></svg>