<svg xmlns="http://www.w3.org/2000/svg" xmlns:xlink="http://www.w3.org/1999/xlink" id="Layer_1" width="100" height="100" x="0" y="0" enable-background="new 0 0 100 100" version="1.1" viewBox="0 0 100 100" xml:space="preserve"><g><linearGradient id="SVGID_1_" x1="71.38" x2="58.094" y1="60.74" y2="37.383" gradientUnits="userSpaceOnUse"><stop offset="0" style="stop-color:#093cc3"/><stop offset="1" style="stop-color:#2787ff"/><stop offset="1" style="stop-color:#2787ff"/></linearGradient><path fill="url(#SVGID_1_)" fill-rule="evenodd" d="M87.3,99.7c4.4-2.7,4.8-2.5,5-4.4c0-0.4,0.1-46.6-0.1-47.6 c-0.4-2.2-1.4-3.7-2.8-5C88.6,42.1,16,0.4,15.6,0.3C13.9-0.4,13.9,0,9.5,2.7c0.9-0.5,1.6-0.3,2.5,0.2 c70.3,40.4,72.9,41.8,73.8,42.6c1.4,1.4,2.3,3,2.5,5.1c0,0.5,0.1,46.6-0.1,47.5C88,99.1,87.8,99.4,87.3,99.7z" clip-rule="evenodd"/><linearGradient id="SVGID_2_" x1="67.255" x2="49.684" y1="2.636" y2="47.85" gradientUnits="userSpaceOnUse"><stop offset="0" style="stop-color:#093cc3"/><stop offset="1" style="stop-color:#2787ff"/><stop offset="1" style="stop-color:#2787ff"/></linearGradient><path fill="url(#SVGID_2_)" fill-rule="evenodd" d="M84.8,44.6L12,2.9c-2-1.1-3.6-0.1-3.6,2.2v46.3 c0,2.4,1.6,5.2,3.6,6.4l3.3,1.9l-0.5,12.3l13.9-4.6l56.1,32.2c2,1.1,3.6,0.1,3.6-2.2V51C88.4,48.6,86.7,45.8,84.8,44.6z" clip-rule="evenodd"/><path fill="#FFF" fill-rule="evenodd" d="M77.7,65.5c1.1,0.7,2.1,2.3,2.1,3.7v0.9c0,1.4-0.9,1.9-2.1,1.3 L19,37.7C17.9,37,17,35.4,17,34v-0.9c0-1.4,0.9-1.9,2.1-1.3C18.9,31.8,81.7,67.8,77.7,65.5z M19,45.1c-1.1-0.7-2.1-0.1-2.1,1.3v0.9 c0,1.4,0.9,3,2.1,3.7l58.7,33.7c1.1,0.7,2.1,0.1,2.1-1.3v-0.9c0-1.4-0.9-3-2.1-3.7L19,45.1z" clip-rule="evenodd"/><path fill="#FFF" fill-rule="evenodd" d="M19,18.5l58.7,33.7c1.1,0.7,2.1,2.3,2.1,3.7v0.9 c0,1.4-0.9,1.9-2.1,1.3L19,24.4c-1.1-0.7-2.1-2.3-2.1-3.7v-0.9C17,18.5,17.9,17.9,19,18.5z" clip-rule="evenodd"/></g></svg>