<?xml version="1.0" encoding="utf-8"?>
<!-- Generator: Adobe Illustrator 24.2.1, SVG Export Plug-In . SVG Version: 6.00 Build 0)  -->
<svg version="1.1" id="Layer_1" xmlns="http://www.w3.org/2000/svg" xmlns:xlink="http://www.w3.org/1999/xlink" x="0px" y="0px"
	 width="28.3px" height="93.2px" viewBox="0 0 28.3 93.2" enable-background="new 0 0 28.3 93.2" xml:space="preserve">
<g>
	<path fill="#13027B" d="M3.7,81.2c-5,2.7-5,7.1,0,9.9c5,2.7,13.1,2.7,18.1,0c5-2.7,5-7.1,0-9.9C16.8,78.5,8.7,78.5,3.7,81.2z"/>
	<linearGradient id="SVGID_1_" gradientUnits="userSpaceOnUse" x1="0.8432" y1="84.4359" x2="28.3105" y2="84.4359">
		<stop  offset="0" style="stop-color:#001C96"/>
		<stop  offset="1" style="stop-color:#157EFF"/>
	</linearGradient>
	<path fill="url(#SVGID_1_)" d="M4.9,79.1c-5.4,2.9-5.4,7.7,0,10.6c5.4,2.9,14.1,2.9,19.4,0c5.4-2.9,5.4-7.7,0-10.6
		C18.9,76.2,10.2,76.2,4.9,79.1z"/>
	<linearGradient id="SVGID_2_" gradientUnits="userSpaceOnUse" x1="3.0733" y1="96.1066" x2="12.0197" y2="86.4637">
		<stop  offset="0" style="stop-color:#245DF5"/>
		<stop  offset="1" style="stop-color:#82B9FF"/>
	</linearGradient>
	<path fill="url(#SVGID_2_)" d="M4.9,78.4c-5.4,2.9-5.4,7.7,0,10.6c5.4,2.9,14.1,2.9,19.4,0c5.4-2.9,5.4-7.7,0-10.6
		C18.9,75.5,10.2,75.5,4.9,78.4z"/>
	<linearGradient id="SVGID_3_" gradientUnits="userSpaceOnUse" x1="5.7907" y1="91.8392" x2="19.8799" y2="78.6606">
		<stop  offset="0" style="stop-color:#093CC3"/>
		<stop  offset="1" style="stop-color:#2787FF"/>
		<stop  offset="1" style="stop-color:#2787FF"/>
	</linearGradient>
	<path opacity="0.63" fill="url(#SVGID_3_)" d="M8.4,80c-3.5,1.9-3.5,5,0,6.9c3.5,1.9,9.1,1.9,12.6,0c3.5-1.9,3.5-5,0-6.9
		C17.6,78.1,11.9,78.1,8.4,80z"/>
	<path fill="#13027B" d="M8.2,80.7c-2.8,1.5-2.8,4,0,5.5c2.8,1.5,7.2,1.5,10,0c2.8-1.5,2.8-4,0-5.5C15.5,79.2,11,79.2,8.2,80.7z"/>
	<g>
		<linearGradient id="SVGID_4_" gradientUnits="userSpaceOnUse" x1="2.4741" y1="67.6675" x2="11.0991" y2="75.8104">
			<stop  offset="0" style="stop-color:#001C96"/>
			<stop  offset="1" style="stop-color:#157EFF"/>
		</linearGradient>
		<path fill="url(#SVGID_4_)" d="M9.4,77.3c0.9,0,1.2-1.2,0.4-1.6c0,0-1.7-0.8-2.9-1.9c-1.2-1.1-1.6-2.1-1.3-3.2
			C5.8,70.1,6,70.1,6.1,70c0.4-0.1,1.3,0.2,2.2,1.2c0.3,0.3,0.9,0.4,1.2,0.1c0.4-0.3,0.4-0.8,0.1-1.2c-2.5-2.7-5.1-2-5.7,0.1
			c-0.4,1.6,0.2,3.2,1.7,4.7C7.1,76.3,9,77.2,9,77.2C9.2,77.3,9.3,77.3,9.4,77.3z"/>
		<linearGradient id="SVGID_5_" gradientUnits="userSpaceOnUse" x1="5.0729" y1="74.3211" x2="24.205" y2="74.3211">
			<stop  offset="0" style="stop-color:#0135AC"/>
			<stop  offset="1" style="stop-color:#001678"/>
		</linearGradient>
		<path fill="url(#SVGID_5_)" d="M7.9,70.6c-3.7,2-3.7,5.3,0,7.4c3.7,2,9.8,2,13.5,0c3.7-2,3.7-5.3,0-7.4
			C17.7,68.6,11.6,68.6,7.9,70.6z"/>
		<path fill="#FCDEA9" d="M21.4,70.6c3.7,2,3.7,5.3,0,7.4c-3.7,2-9.8,2-13.5,0c-3.7-2-3.7-5.3,0-7.4C11.6,68.6,17.7,68.6,21.4,70.6z
			 M8.7,77.5c3.3,1.8,8.5,1.8,11.8,0c3.3-1.8,3.3-4.7,0-6.4c-3.3-1.8-8.5-1.8-11.8,0C5.5,72.9,5.5,75.8,8.7,77.5z"/>
		<linearGradient id="SVGID_6_" gradientUnits="userSpaceOnUse" x1="5.0729" y1="74.321" x2="24.205" y2="74.321">
			<stop  offset="0" style="stop-color:#245DF5"/>
			<stop  offset="1" style="stop-color:#82B9FF"/>
		</linearGradient>
		<path fill="url(#SVGID_6_)" d="M21.4,70.6c3.7,2,3.7,5.3,0,7.4c-3.7,2-9.8,2-13.5,0c-3.7-2-3.7-5.3,0-7.4
			C11.6,68.6,17.7,68.6,21.4,70.6z M8.7,77.5c3.3,1.8,8.5,1.8,11.8,0c3.3-1.8,3.3-4.7,0-6.4c-3.3-1.8-8.5-1.8-11.8,0
			C5.5,72.9,5.5,75.8,8.7,77.5z"/>
		<linearGradient id="SVGID_7_" gradientUnits="userSpaceOnUse" x1="13.1036" y1="87.6105" x2="14.6571" y2="74.3248">
			<stop  offset="0" style="stop-color:#001C96"/>
			<stop  offset="1" style="stop-color:#157EFF"/>
		</linearGradient>
		<path fill="url(#SVGID_7_)" d="M7.9,78c5.3,2.9,14.6,1.5,16.1-2.6c-0.4,3.4-4.2,9.4-6.1,10c-2.1,0.8-5,1-7,0.1
			c-2.1-0.9-5.7-7.3-5.9-10.6C5.3,76,6.3,77.1,7.9,78z"/>
		<path fill="#CB6015" d="M20.5,74.2c0.7,0.4,1.6,1.2,2,1.7c-0.5,0.6-1.3,1.3-1.9,1.7c-3.3,1.8-9,1.7-11.8,0
			c-1.3-0.8-1.8-1.4-2.1-1.9c0.4-0.4,1.3-1,1.9-1.4C11.8,72.4,17.2,72.4,20.5,74.2z"/>
		<path fill="#E87722" d="M6.9,75.9c1.7-1.4,5.8-2.9,7.4-2.3c0.4,0.3,1,1.2,0.1,1.9c-0.4,0.3-1.2,0.9-0.7,1.5
			c1.1,1.4,4.6,0.6,5.1,1.2c-3.5,1.1-8.5,0.7-11.1-1.4C7,76.2,6.9,75.9,6.9,75.9z"/>
	</g>
	<path fill="#BBFAFF" d="M6.9,68.9c0,0,0.4-0.1,1.1,0.4C8.7,69.8,8,70,8,70s-0.5,0.1-1.2-0.4C6.1,69.1,6.9,68.9,6.9,68.9z"/>
	<path opacity="0.4" fill="#BBFAFF" d="M12,69.5c0,0,0.8-4.2-4.5-7.7c-5-3.3-1.7-12.9-1.7-12.9s4.5,4.7,4.8,6c0.5,2.2-2,3.8,2.1,8.6
		c2.3,2.8,0.8,5.8,0.8,5.8s1.5-1.8,2-3.3c0.6-1.6,0.7-5.3-1.1-9.2c-2.5-5.4-8.2-7.6-11.4-17c-3-8.6,1.8-13.5,5.7-15.2
		c9.4-4.1,2-24.6,2-24.6s9.1,10.9,11.1,15.8c2,4.9,6.6,14.2-5.1,21.8c-6.6,4.3-2.3,8.9,1.4,17.3c3.7,8.4-3.2,14.6-3.2,14.6
		C14,69.8,13.2,70,12,69.5z"/>
</g>
</svg>
