<?xml version="1.0" encoding="utf-8"?>
<!-- Generator: Adobe Illustrator 24.2.1, SVG Export Plug-In . SVG Version: 6.00 Build 0)  -->
<svg version="1.1" id="Layer_1" xmlns="http://www.w3.org/2000/svg" xmlns:xlink="http://www.w3.org/1999/xlink" x="0px" y="0px"
	 width="100px" height="65.7px" viewBox="0 0 100 65.7" enable-background="new 0 0 100 65.7" xml:space="preserve">
<g>
	<g>
		<path opacity="0.2" fill="#13027B" d="M98.8,32.5c-6,3.5,3.1-1.8-57.5,33.2L2.7,43.4l57.5-33.2C62.1,11.3,97.5,31.7,98.8,32.5z"/>
		<linearGradient id="SVGID_1_" gradientUnits="userSpaceOnUse" x1="0" y1="35.861" x2="96.1536" y2="35.861">
			<stop  offset="0" style="stop-color:#001C96"/>
			<stop  offset="1" style="stop-color:#157EFF"/>
		</linearGradient>
		<path fill="url(#SVGID_1_)" d="M96.2,30.4c-6,3.5,3.1-1.8-57.5,33.2L0,41.3L57.5,8.1C59.5,9.2,94.8,29.7,96.2,30.4z"/>
		<linearGradient id="SVGID_2_" gradientUnits="userSpaceOnUse" x1="83.005" y1="13.2569" x2="-1.1876" y2="65.854">
			<stop  offset="0" style="stop-color:#093CC3"/>
			<stop  offset="1" style="stop-color:#2787FF"/>
			<stop  offset="1" style="stop-color:#2787FF"/>
		</linearGradient>
		<polygon fill="url(#SVGID_2_)" points="96.2,29.6 38.7,62.8 0,40.5 57.5,7.3 		"/>
		<linearGradient id="SVGID_3_" gradientUnits="userSpaceOnUse" x1="0" y1="34.3613" x2="96.1536" y2="34.3613">
			<stop  offset="0" style="stop-color:#001C96"/>
			<stop  offset="1" style="stop-color:#157EFF"/>
		</linearGradient>
		<polygon fill="url(#SVGID_3_)" points="96.2,28.9 38.7,62.1 0,39.8 57.5,6.6 		"/>
		<linearGradient id="SVGID_4_" gradientUnits="userSpaceOnUse" x1="82.3311" y1="12.1781" x2="-1.8613" y2="64.775">
			<stop  offset="0" style="stop-color:#093CC3"/>
			<stop  offset="1" style="stop-color:#2787FF"/>
			<stop  offset="1" style="stop-color:#2787FF"/>
		</linearGradient>
		<polygon fill="url(#SVGID_4_)" points="96.2,28.1 38.7,61.3 0,39 57.5,5.8 		"/>
		<linearGradient id="SVGID_5_" gradientUnits="userSpaceOnUse" x1="0" y1="32.8597" x2="96.1536" y2="32.8597">
			<stop  offset="0" style="stop-color:#001C96"/>
			<stop  offset="1" style="stop-color:#157EFF"/>
		</linearGradient>
		<polygon fill="url(#SVGID_5_)" points="96.2,27.4 38.7,60.6 0,38.3 57.5,5.1 		"/>
		<linearGradient id="SVGID_6_" gradientUnits="userSpaceOnUse" x1="81.6568" y1="11.0989" x2="-2.5356" y2="63.6959">
			<stop  offset="0" style="stop-color:#093CC3"/>
			<stop  offset="1" style="stop-color:#2787FF"/>
			<stop  offset="1" style="stop-color:#2787FF"/>
		</linearGradient>
		<polygon fill="url(#SVGID_6_)" points="96.2,26.6 38.7,59.8 0,37.5 57.5,4.3 		"/>
		<linearGradient id="SVGID_7_" gradientUnits="userSpaceOnUse" x1="0" y1="31.3578" x2="96.1536" y2="31.3578">
			<stop  offset="0" style="stop-color:#001C96"/>
			<stop  offset="1" style="stop-color:#157EFF"/>
		</linearGradient>
		<polygon fill="url(#SVGID_7_)" points="96.2,25.9 38.7,59.1 0,36.8 57.5,3.6 		"/>
		<linearGradient id="SVGID_8_" gradientUnits="userSpaceOnUse" x1="80.9814" y1="10.0178" x2="-3.2111" y2="62.6149">
			<stop  offset="0" style="stop-color:#093CC3"/>
			<stop  offset="1" style="stop-color:#2787FF"/>
			<stop  offset="1" style="stop-color:#2787FF"/>
		</linearGradient>
		<polygon fill="url(#SVGID_8_)" points="96.2,25.1 38.7,58.3 0,36 57.5,2.8 		"/>
		<linearGradient id="SVGID_9_" gradientUnits="userSpaceOnUse" x1="0" y1="29.8579" x2="96.1536" y2="29.8579">
			<stop  offset="0" style="stop-color:#001C96"/>
			<stop  offset="1" style="stop-color:#157EFF"/>
		</linearGradient>
		<polygon fill="url(#SVGID_9_)" points="96.2,24.4 38.7,57.6 0,35.3 57.5,2.1 		"/>
		<path fill="#00EBFF" d="M96.2,23.6C44.9,53.2,46.5,52.9,38.7,55.2L0,32.9c7.5-2.1,5.9-1.8,57.5-31.5L96.2,23.6z"/>
		<g>
			<path d="M91.8,33c5.3-3,4.6-2.4,3.9-2.8c1.5-1.5,2.7-3.8,2.8-5.7l1.6-0.5C100.3,28.2,95.5,34.3,91.8,33z"/>
			<path fill="#3C3C3B" d="M95.2,22.2c1.9-1.1,3.2-0.3,3.2,1.9c0,0.3,1.5-0.2,1.5-0.2c-0.2-4.4-4.7-5.2-8.2-0.6
				C94.6,24.1,92.5,23.8,95.2,22.2z"/>
			<path fill="#3C3C3B" d="M93.4,23c0.9,0.5-0.4,1.3-1.3,0.8C91.2,23.3,92.5,22.5,93.4,23z"/>
		</g>
		<path d="M100,23.9c-0.2-4.4-4.7-5.1-8.1-0.7c-0.3,0.6,0.9,1,1.5,0.6c2.3-2.7,5.1-3,5.1,0.6C98.4,24.7,100,23.9,100,23.9z"/>
		<g>
			<path d="M95.6,21.4c-0.2-4.4-4.7-5.1-8.1-0.7c-0.3,0.6,0.9,1,1.5,0.6c2.4-2.7,5.1-2.9,5.1,0.3C94,21.9,95.6,21.4,95.6,21.4z"/>
			<path d="M91.2,18.8c-0.2-4.4-4.7-5.1-8.1-0.7c-0.3,0.6,0.9,1,1.5,0.6c2.4-2.7,5.1-2.9,5.1,0.3C89.6,19.4,91.2,18.8,91.2,18.8z"/>
			<path d="M86.8,16.3c-0.2-4.4-4.7-5.1-8.1-0.7c-0.4,0.6,0.9,1,1.5,0.6c2.3-2.6,5.1-2.9,5.1,0.3C85.3,16.8,86.8,16.3,86.8,16.3z"/>
			<path d="M82.5,13.8c-0.2-4.4-4.7-5.1-8.1-0.7c-0.4,0.6,0.9,1,1.5,0.6c2.3-2.6,5.1-2.9,5.1,0.3C80.9,14.3,82.5,13.8,82.5,13.8z"/>
			<path d="M78.1,11.3c-0.2-4.4-4.7-5.1-8.1-0.7c-0.4,0.6,0.9,1,1.5,0.6c2.3-2.6,5.1-2.9,5.1,0.3C76.5,11.8,78.1,11.3,78.1,11.3z"/>
			<path d="M73.7,8.7c-0.2-4.4-4.7-5.1-8.1-0.7c-0.4,0.6,0.9,1,1.5,0.6C69.4,6,72.2,5.7,72.2,9C72.2,9.3,73.7,8.7,73.7,8.7z"/>
			<path d="M69.4,6.2c-0.2-4.4-4.7-5.1-8.1-0.7c-0.4,0.6,0.9,1,1.5,0.6c2.3-2.6,5.1-2.9,5.1,0.3C67.8,6.7,69.4,6.2,69.4,6.2z"/>
			<path d="M65,3.7c-0.2-4.4-4.7-5.1-8.1-0.7c-0.4,0.6,0.9,1,1.5,0.6c2.3-2.6,5.1-3,5.1,0.3C63.4,4.2,65,3.7,65,3.7z"/>
		</g>
	</g>
	<g>
		<path opacity="0.5" fill="#7F8C8D" d="M72.2,15C62.1,9.1,44.7,13.4,45,21.8c0-0.1,0-1,0,2.6c0,1.4,0.5,2.8,1.4,3.9l-1.3,0.8
			c-0.6-0.5-1.4-0.8-2-0.4L25.2,39.1c-2.1,1.3,1.1,7.1,3.3,5.8c-0.1,0.1-0.3,0.2,17.8-10.4c0.6-0.4,0.8-1.2,0.6-2.1
			c2.4-1.4,2.2-1.3,2.3-1.5c5.8,3.5,16.1,4.2,22.9,0.2c5.2-3,4.6-6.1,4.6-9.3C76.9,19.3,75.4,16.9,72.2,15z"/>
		<g>
			<linearGradient id="SVGID_10_" gradientUnits="userSpaceOnUse" x1="45.0463" y1="17.8144" x2="73.2561" y2="17.8144">
				<stop  offset="0" style="stop-color:#093CC3"/>
				<stop  offset="1" style="stop-color:#2787FF"/>
				<stop  offset="1" style="stop-color:#2787FF"/>
			</linearGradient>
			<path fill="url(#SVGID_10_)" d="M73.3,20.4v3c0-10.7-28.2-11.1-28.2-0.1v-3C45.1,9.7,73.3,9.3,73.3,20.4z"/>
			<path opacity="0.7" fill="#BBFAFF" d="M69.4,28.1C55.9,36,35.5,24,48.9,16.1c5.6-3.3,14.7-3.3,20.4,0C75,19.4,75,24.8,69.4,28.1z
				"/>
			<linearGradient id="SVGID_11_" gradientUnits="userSpaceOnUse" x1="57.2655" y1="31.2436" x2="61.819" y2="8.7551">
				<stop  offset="0" style="stop-color:#093CC3"/>
				<stop  offset="1" style="stop-color:#2787FF"/>
				<stop  offset="1" style="stop-color:#2787FF"/>
			</linearGradient>
			<path fill="url(#SVGID_11_)" d="M75.1,20.4c0,3.1,0.6,6.3-4.6,9.3c-9.9,5.8-27.4,1.7-27.3-6.7v-2.7c0,2.4,1.6,4.8,4.7,6.7
				C57.9,32.9,75.1,28.8,75.1,20.4z"/>
			<path fill="#BBFAFF" d="M70.4,13.8c6.3,3.7,6.3,9.6,0.1,13.3c-6.2,3.7-16.4,3.7-22.6,0c-6.3-3.7-6.3-9.6-0.1-13.3
				C54,10.1,64.2,10.1,70.4,13.8z M49.2,26.2c13.3,7.8,33.1-4,19.9-11.7C55.8,6.8,36,18.5,49.2,26.2z"/>
			<path fill="#13027B" d="M45.4,26.5c1.2-0.7,3.1,2.6,1.9,3.3l-9.6,5.6c0.9-0.5,0.2-2.5-0.9-3.2C36,31.8,32.8,33.9,45.4,26.5z"/>
			<g enable-background="new    ">
				<linearGradient id="SVGID_12_" gradientUnits="userSpaceOnUse" x1="37.1769" y1="39.8134" x2="33.0879" y2="31.8213">
					<stop  offset="0" style="stop-color:#001C96"/>
					<stop  offset="0.1847" style="stop-color:#01209A"/>
					<stop  offset="0.3838" style="stop-color:#032CA7"/>
					<stop  offset="0.5896" style="stop-color:#0840BD"/>
					<stop  offset="0.7986" style="stop-color:#0E5CDB"/>
					<stop  offset="1" style="stop-color:#157EFF"/>
				</linearGradient>
				<path fill="url(#SVGID_12_)" d="M41.3,27.4c2.1-1.2,5.5,4.5,3.3,5.8L26.7,43.6c1.5-0.9,0.3-4.4-1.6-5.6
					C23.7,37.2,17.9,41.1,41.3,27.4z"/>
				<path fill="#13027B" d="M25.1,38c-3.1-1.8-3.1,3.6,0,5.4C28.1,45.2,28.2,39.8,25.1,38z"/>
			</g>
		</g>
	</g>
</g>
</svg>
