<svg xmlns="http://www.w3.org/2000/svg" xmlns:xlink="http://www.w3.org/1999/xlink" id="Layer_1" width="50" height="51.6" x="0" y="0" version="1.1" viewBox="0 0 50 51.6" xml:space="preserve" style="enable-background:new 0 0 50 51.6"><style type="text/css">.st0{clip-path:url(#SVGID_2_)}.st1{opacity:.5}.st2{fill:#c3d2f5}.st3{fill:#eef3fe}.st4{fill:#91aeeb}.st5{fill:#8e9fbc}.st6{fill:#1c1f2a}.st7{fill:#34495d}.st8{fill:#fff}.st9{fill:#bdc3c7}.st10{fill:#0d9bb2}.st11{fill:#d43e3e}.st12{fill:#8294ed}.st13{fill:#b7ceff}.st14{fill:#172033}.st15{fill:#4c5569}.st16{fill:#ffb000}.st17{fill:#ffe44a}.st18{fill:#e08910}.st19{opacity:.1;fill:#0e151b}.st20{fill:#ff920f}.st21{fill:#ffcf58}.st22{enable-background:new}.st23{fill:#333}.st24{fill:#0c1a32}.st25{fill:#e4eef3}.st26{fill:#dce7ff}.st27{fill:#7f8c8d}.st28{fill:#00b388}.st29{fill:#a7d6e0}.st30{fill:#fa7564}.st31{fill:#008c99}.st32{fill:#252321}.st33{fill:#cfdee8}.st34{fill:#081521}.st35{fill:#f99b80}.st36{fill:#f17463}.st37{fill:#1f2a44}.st38{fill:#f7ae92}.st39{fill:#f7567e}.st40{fill:#a61d1d}.st41{fill:#2b3d50}.st42{fill:#703f2a}.st43{fill:#4e3629}.st44{fill:#acd0e6}.st45{fill:#00adbd}.st46{fill:#fff}.st46,.st47,.st48,.st49{fill-rule:evenodd;clip-rule:evenodd}.st47{fill:#d43e3e}.st48{fill:#b7ceff}.st49{fill:#8294ed}.st50{fill:#00adbd}.st50,.st51,.st52,.st53,.st54,.st55{fill-rule:evenodd;clip-rule:evenodd}.st51{fill:#35c473}.st52{fill:#0c1a32}.st53{fill:#ffb000}.st54{fill:#ffe44a}.st55,.st56{opacity:.5;fill:#ffb000}.st56{fill:#fff}</style><g><defs><rect id="SVGID_1_" width="50" height="51.6" x="0" y="0"/></defs><clipPath id="SVGID_2_"><use style="overflow:visible" xlink:href="#SVGID_1_"/></clipPath><g class="st0"><g class="st1"><path d="M49.1,19.4c3.9,13.5-6,26.1-19.3,24.6C16.5,42.5-3.7,50.2,0.6,32.1c2.8-11.6,9.5-9.5,15.1-17.1 C24.6,3.1,34.3,2.7,41.1,7.6C41.2,7.7,46.8,11.1,49.1,19.4z" class="st2"/><path d="M41.1,7.6c4.3,7.3-11.7,17.1-18.6,14.7c-6.8-2.4-16.3,2.4-22,9.9c2.8-11.6,9.5-9.5,15.1-17.1 C24.6,3.1,34.3,2.7,41.1,7.6z" class="st3"/><path d="M7.5,20.6c2.5-0.8,4-3.4,6.4-5.7c2.4-2.3,3.4-3,2.2-4.2c-1.2-1.2-6,1.2-8,4.7S4,21.8,7.5,20.6z" class="st3"/><path d="M50,24.8C50.3,36,41.4,45.3,29.8,44c-11.2-1.2-27.1,3.9-29.5-4.9c1.6-2.3,6.2-4.1,12.5-3 c8.1,1.5,22.8,1.1,29.7-7.2C45.3,25.6,47.9,24.7,50,24.8z" class="st4"/></g><g><path d="M39.5,27.9l-7-4.1c-1.3-0.7-1.1-2,0.4-2.9c1.5-0.9,3.7-0.9,5-0.2l7,4.1c1.3,0.7,1.1,2-0.4,2.9 C43.1,28.6,40.8,28.7,39.5,27.9z" class="st5"/><path d="M34,20.4c0,0-2,1.4-1.3,2.2c0.4,0.4,2.7-0.6,2.7-0.6L34,20.4z" class="st6"/><path d="M41.8,24.9c0,0,1.5,3.6,1.1,3.6c-0.8-0.1-2.5-3.5-2.5-3.5L41.8,24.9z" class="st6"/><path d="M45.9,20.1c0-3.8-2.7-8.5-6-10.4c-1.8-1-3.4-1.1-4.5-0.3l-3.5,2l2.2,3.8c0.6,2.5,2.1,5.1,4,6.9l2.3,3.9 l3.3-1.9C45,23.7,45.9,22.3,45.9,20.1z" class="st7"/><path d="M36.4,12.7c-2.9-1.6-5.2-0.3-5.2,3c0,3.3,2.3,7.3,5.2,8.9c2.9,1.6,5.2,0.3,5.2-3 C41.5,18.3,39.2,14.3,36.4,12.7z" class="st8"/><path d="M36.4,11.7c3.3,1.9,6,6.6,6,10.4c0,3.8-2.7,5.4-6,3.4c-3.3-1.9-6-6.6-6-10.4C30.3,11.3,33,9.8,36.4,11.7z M36.4,24.6c2.9,1.6,5.2,0.3,5.2-3c0-3.3-2.3-7.3-5.2-8.9c-2.9-1.6-5.2-0.3-5.2,3C31.2,18.9,33.5,22.9,36.4,24.6z" class="st9"/><path d="M35.9,18.6C35.9,18.5,35.9,18.5,35.9,18.6C35.9,18.5,35.9,18.5,35.9,18.6z" class="st10"/><path d="M35.9,18.5c0,0,0-0.2,0-0.2l0,0C35.9,18.4,35.9,18.4,35.9,18.5z" class="st10"/><polygon points="35.8 18.3 35.9 18.5 32 15.4 32 15.3" class="st11"/><g><polygon points="41.1 21 41.1 21.7 40 21 40 20.4" class="st5"/><polygon points="36.7 22.9 36.7 24.2 36.1 23.9 36.1 22.6" class="st5"/><polygon points="36.7 13.4 36.7 14.6 36.1 14.3 36.1 13" class="st5"/><polygon points="32.8 16.2 32.8 16.9 31.7 16.2 31.7 15.6" class="st5"/></g><g><path d="M36.7,18c-0.1,0.3-0.4-0.2-0.7,0.3l-3-3.6l0,0l-0.5-0.6c0,0-0.1,0.1,0.2-0.2l0,0c0.1-0.1,0.4,0,0.7,0.3 L36.7,18z" class="st12"/><path d="M36.5,18.1c-0.3,0.6-0.5,0.1-0.6,0.4l-3.2-3.9c-0.2-0.2-0.2-0.4-0.2-0.5c0,0,0,0,0,0 c0.1-0.1,0.4,0,0.7,0.4L36.5,18.1z" class="st13"/></g><g><path d="M37.7,16.8c-1.4,1.1-1,0.8-1.6,1.3c-0.1,0.1,0,0.4,0,0.6c0.1,0.3,0.5,0.6,0.7,0.5l1.4-1.7 C38.4,17.2,38,16.6,37.7,16.8z" class="st14"/><path d="M37.6,16.8c-1.4,1.1-1,0.8-1.6,1.3c-0.1,0.1,0,0.4,0,0.6c0.1,0.3,0.5,0.6,0.7,0.5l1.4-1.7 C38.3,17.2,37.8,16.6,37.6,16.8z" class="st15"/></g><g><path d="M44.3,17.5c-1.8,1.1-4.5-0.8-5-3.4c-0.3-1.4,0.1-2.7,1.1-3.3c1.4-0.8,3.7-0.8,5.2,1.5 C47.1,14.5,45.7,16.7,44.3,17.5z" class="st16"/><path d="M31.1,11.7c-1.9-0.3-1.9-3.5,0.6-4.9C33,6,34.2,6.1,35.2,6.5c0.7,0.3,1.3,0.9,1.5,1.5 C37.2,9.4,32.7,11.9,31.1,11.7z" class="st16"/><path d="M44.8,12.5c-0.2-0.3-0.4-0.5-0.6-0.4c-0.8,0.5-0.8,0.4-0.8,0.5c-0.8-0.6-1.6-1.7-1.8-2.7l0-0.2 c-0.3-1.3-1.2-2.6-2.2-3.3l-2.3-1.3c-1-0.6-2-0.3-2.2,0.7l0,0.1c-0.2,0.7-0.8,1-1.6,0.8c0-0.1,0-0.2-0.1-0.3l-0.5-0.8 c-0.2-0.3-0.7-0.3-0.9-0.2c-0.2,0.1-0.4,0.5-0.2,0.8L31.9,7c0.1,0.2,0.4,0.3,0.6,0.2C33,6.9,32.9,7,32.9,7c1,0.5,1.8,0.2,2-0.8 L35,6c0.2-0.9,1-1.1,1.9-0.6l2.3,1.3c0.9,0.5,1.7,1.7,1.9,2.8l0,0.2c0.3,1.2,1.1,2.5,2,3.1c0,0.1,0,0.1,0.3,0.6 c0.1,0.2,0.3,0.2,0.5,0.1l0.7-0.4C44.9,13.1,44.9,12.8,44.8,12.5z" class="st17"/><path d="M44.3,17.5c-1.8,1.1-4.5-0.8-5-3.4c1.1,2.4,4.8,2.4,5.9,1.4c1-1,0.4-3.2,0.4-3.2 C47.1,14.5,45.7,16.7,44.3,17.5z" class="st18"/><path d="M31.1,11.7c-0.6-0.1-1-0.5-1.2-1c0,0,1.1,0.7,2.4,0.4c1-0.2,3.1-1.9,3.6-2.4c0.5-0.5,0-1.4-0.7-2.1 c0.7,0.3,1.3,0.9,1.5,1.5C37.2,9.4,32.7,11.9,31.1,11.7z" class="st18"/></g></g><g><path d="M12.6,37.7l-2.4-1.4c-0.5-0.3-1.4-0.3-1.9,0l-4.5,2.6c-0.5,0.3-0.5,0.8,0,1.1c0.9,0.5,1.8,1,4.8,2.8 l0.8-2.2l3.1-1.8C13.1,38.5,13.1,38,12.6,37.7z" class="st19"/><g><path d="M12.8,36.9c0,0.2-0.1,0.4-0.4,0.6l-3.1,1.8l-0.8,2.2c-5.3-3.1-5-2.9-5.2-3.1c-0.1-0.1-0.1-0.2-0.1-0.3 c0,0.7,0,0.7,0,0.7c0,0.1,0.1,0.2,0.2,0.3c0.1,0.1,0.4,0.3,5,3l0.8-2.2l3.1-1.8c0.3-0.2,0.4-0.4,0.4-0.6V36.9z" class="st20"/><path d="M12.4,36.3L10,34.9c-0.5-0.3-1.4-0.3-1.9,0l-4.5,2.6c-0.5,0.3-0.5,0.8,0,1.1c1.9,1.1,0.2,0.1,4.8,2.8 l0.8-2.2l3.1-1.8C13,37.1,13,36.6,12.4,36.3z" class="st21"/><g><polygon points="6.4 39.2 6.8 39.4 11.5 36.6 11.2 36.4" class="st8"/><polygon points="5.4 38.6 5.8 38.8 10.6 36.1 10.2 35.9" class="st8"/><polygon points="4.4 38.1 4.8 38.3 9.6 35.5 9.2 35.3" class="st8"/></g></g></g><g><path d="M18.6,41.8l-2.4-1.4c-0.5-0.3-1.4-0.3-1.9,0L9.8,43c-0.5,0.3-0.5,0.8,0,1.1c0.9,0.5,1.8,1,4.8,2.8l0.8-2.2 l3.1-1.8C19.2,42.6,19.2,42.1,18.6,41.8z" class="st19"/><g><path d="M18.9,40.9c0,0.2-0.1,0.4-0.4,0.6l-3.1,1.8l-0.8,2.2c-5.3-3.1-5-2.9-5.2-3.1c-0.1-0.1-0.1-0.2-0.1-0.3 c0,0.7,0,0.7,0,0.7c0,0.1,0.1,0.2,0.2,0.3c0.1,0.1,0.4,0.3,5,3l0.8-2.2l3.1-1.8c0.3-0.2,0.4-0.4,0.4-0.6V40.9z" class="st20"/><path d="M18.5,40.4L16.1,39c-0.5-0.3-1.4-0.3-1.9,0l-4.5,2.6c-0.5,0.3-0.5,0.8,0,1.1c1.9,1.1,0.2,0.1,4.8,2.8 l0.8-2.2l3.1-1.8C19,41.2,19,40.7,18.5,40.4z" class="st21"/><g><polygon points="12.4 43.3 12.8 43.5 17.6 40.7 17.2 40.5" class="st8"/><polygon points="11.5 42.7 11.8 42.9 16.6 40.2 16.2 39.9" class="st8"/><polygon points="10.5 42.1 10.8 42.4 15.6 39.6 15.3 39.4" class="st8"/></g></g></g><g><path d="M41.6,32.6c-0.2,0.1-16.1,8.2-17.8,9.1c-0.2,0.1-0.6,0.1-0.8,0l-12-7c-0.2-0.1-0.2-0.3,0-0.4l17.8-9.1 c0.2-0.1,0.6-0.1,0.8,0c7.2,4.2,4.7,2.7,12,7C41.8,32.3,41.8,32.5,41.6,32.6z" class="st19"/><g><g><g><g class="st22"><path d="M7.2,18.7L10.1,33c0,0.2,0.1,0.3,0.2,0.3l0.3,0.1c-0.1,0-0.2-0.1-0.2-0.3L7.5,18.8 c-0.1-0.3,0.1-0.6,0.3-0.7L25.6,9c0.1,0,0.2-0.1,0.3,0l-0.3-0.1c-0.1,0-0.2,0-0.3,0L7.5,18C7.3,18.1,7.2,18.4,7.2,18.7z" class="st23"/><g><path d="M28.8,24.3l-17.8,9.1c-0.2,0.1-0.5,0-0.5-0.3L7.5,18.8c-0.1-0.3,0.1-0.6,0.3-0.7L25.6,9 c0.2-0.1,0.5,0,0.5,0.3c0.7,3.6,2.7,13.2,2.9,14.3C29.1,23.8,29,24.2,28.8,24.3z" class="st24"/><path d="M8,18.6c1,5,0.6,3.2,2.8,13.5c24.3-12.4,12.6-6.4,17.7-9c-1.2-5.9-0.6-2.8-2.8-13.5 C10.2,17.4,14.3,15.3,8,18.6z" class="st25"/><g><g><path d="M3.7,18l0,0.2c0.1,0.6,0.7,0.9,1.3,0.5c0.7-0.3,1.2-1.1,1.1-1.8l1.5-0.7l-0.1-1.2l-5.2,2.6 C2.8,17.4,3.3,17.7,3.7,18z" class="st26"/><path d="M9.1,15.5c-0.1-0.8-0.8-1.1-1.6-0.7l-0.6,0.3c-0.8,0.4-0.8,1-0.8,1.8c0.1,0.6-0.4,1.4-1.1,1.8 c1.5-0.8,0.6-0.3,4.2-2.1L9.1,15.5z" class="st27"/><path d="M24,8.1C24,7.3,23.3,7,22.4,7.4c0,0,0.2-0.1-14.9,7.4c0.8-0.4,1.5-0.1,1.6,0.7c0,0,0,0.3,0,0.4 c0.3,3.8,3,14.7,3,14.7l14.9-7.5C26.7,21.2,24.2,10.1,24,8.1z" class="st8"/><path d="M2.2,17.7C1.7,18,1.5,18.5,1.6,19l2-1C3.5,17.7,2.8,17.5,2.2,17.7z" class="st27"/></g><g><path d="M18.6,12.3L17.3,13c0,0-0.1,0,0,0.1l0.3,1.4c0,0,0.1,0.1,0.1,0.1c0,0-0.1,0.1,1.4-0.7 c0,0,0.1,0,0-0.1l-0.3-1.4C18.8,12.3,18.7,12.3,18.6,12.3z M17.7,14.3l-0.2-1.2l1.2-0.6l0.2,1.2L17.7,14.3z" class="st26"/><path d="M19.4,15.7l-1.4,0.7c0,0-0.1,0,0,0.1l0.3,1.4c0,0,0.1,0.1,0.1,0.1c0,0-0.1,0.1,1.4-0.7 c0,0,0.1,0,0-0.1l-0.3-1.4C19.6,15.7,19.5,15.7,19.4,15.7z M18.5,17.7l-0.2-1.2l1.2-0.6l0.2,1.2L18.5,17.7z" class="st26"/><path d="M20.2,19.1l-1.4,0.7c0,0-0.1,0,0,0.1l0.3,1.4c0,0,0.1,0.1,0.1,0.1c0,0-0.1,0.1,1.4-0.7 c0,0,0.1,0,0-0.1l-0.3-1.4C20.4,19.1,20.3,19,20.2,19.1z M19.3,21.1L19,19.9l1.2-0.6l0.2,1.2L19.3,21.1z" class="st26"/><polygon points="22 21.6 22.5 24.1 26.2 22.2 25.7 19.7" class="st26"/><path d="M21,22.5l-1.4,0.7c0,0-0.1,0,0,0.1l0.3,1.4c0,0,0.1,0.1,0.1,0.1c0,0-0.1,0.1,1.4-0.7 c0,0,0.1,0,0-0.1l-0.3-1.4C21.2,22.5,21.1,22.4,21,22.5z M20.1,24.5l-0.2-1.2l1.2-0.6l0.2,1.2L20.1,24.5z" class="st26"/><path d="M18.6,17c-0.1-0.1-0.3-0.1-0.3,0c-0.1,0.1,0,0.2,0.1,0.3l0.9,0.5l0.6-2.5L19,17.3L18.6,17z" class="st28"/><path d="M20.4,19.3c-0.1,0.3,0,0-0.4,1.7l-0.9-0.5c-0.1-0.1-0.1-0.2-0.1-0.3c0.1-0.1,0.2-0.1,0.3,0l0.4,0.3 c0.5-1.4,0.5-1.3,0.5-1.3C20.3,19.3,20.3,19.2,20.4,19.3z" class="st28"/><path d="M17.8,13.1c-0.1-0.1-0.3-0.1-0.3,0c-0.1,0.1,0,0.2,0.1,0.3l0.9,0.5l0.6-2.5l-0.8,2.1L17.8,13.1z" class="st28"/><g><polygon points="22.5 21.9 22.6 22 23.4 21.6 23.3 21.5" class="st8"/><polygon points="23.5 21.4 23.5 21.6 24.8 20.9 24.8 20.8" class="st8"/><polygon points="24.2 21.3 24.2 21.4 25.4 20.9 25.4 20.7" class="st8"/><polygon points="23 21.9 23 22 24.1 21.5 24 21.4" class="st8"/><polygon points="22.6 22.1 22.6 22.2 22.9 22.1 22.8 22" class="st8"/><polygon points="22.6 22.3 22.6 22.4 25.5 21 25.5 20.9" class="st8"/><polygon points="24.2 21.7 24.3 21.8 25.4 21.3 25.4 21.2" class="st8"/><polygon points="23.1 22.3 23.1 22.4 24.1 21.9 24.1 21.8" class="st8"/><polygon points="22.7 22.5 22.7 22.6 22.9 22.5 22.9 22.4" class="st8"/><polygon points="22.8 23 22.8 23.1 23.6 22.8 23.6 22.7" class="st8"/><polygon points="23.2 23.1 23.2 23.2 24.3 22.6 24.3 22.5" class="st8"/><polygon points="22.8 23.2 22.8 23.3 23.1 23.2 23.1 23.1" class="st8"/><polygon points="23.6 22.2 23.6 22.3 25 21.7 25 21.6" class="st8"/><polygon points="22.7 22.7 22.7 22.8 23.5 22.4 23.5 22.3" class="st8"/></g><polygon points="21.3 18.3 21.8 20.8 25.4 19 24.9 16.5" class="st26"/><g><polygon points="21.8 18.6 21.8 18.7 22.6 18.3 22.6 18.2" class="st8"/><polygon points="22.7 18.2 22.7 18.3 24.1 17.6 24.1 17.5" class="st8"/><polygon points="23.4 18.1 23.4 18.2 24.7 17.6 24.6 17.5" class="st8"/><polygon points="22.2 18.6 22.3 18.7 23.3 18.2 23.3 18.1" class="st8"/><polygon points="21.8 18.8 21.9 18.9 22.1 18.8 22.1 18.7" class="st8"/><polygon points="21.9 19 21.9 19.1 24.8 17.7 24.8 17.6" class="st8"/><polygon points="23.5 18.5 23.5 18.6 24.7 18 24.7 17.9" class="st8"/><polygon points="22.3 19 22.3 19.1 23.4 18.6 23.4 18.5" class="st8"/><polygon points="21.9 19.2 21.9 19.3 22.2 19.2 22.2 19.1" class="st8"/><polygon points="22 19.8 22 19.9 22.9 19.5 22.8 19.4" class="st8"/><polygon points="22.5 19.8 22.5 19.9 23.5 19.4 23.5 19.3" class="st8"/><polygon points="22.1 20 22.1 20.1 22.4 19.9 22.3 19.8" class="st8"/><polygon points="22.9 19 22.9 19.1 24.3 18.4 24.2 18.3" class="st8"/><polygon points="22 19.4 22 19.5 22.8 19.1 22.8 19" class="st8"/></g><polygon points="20.5 15 21 17.5 24.7 15.7 24.2 13.2" class="st26"/><g><polygon points="21.1 15.4 21.1 15.5 21.9 15.1 21.9 15" class="st8"/><polygon points="22 14.9 22 15 23.4 14.4 23.3 14.3" class="st8"/><polygon points="22.7 14.8 22.7 14.9 23.9 14.3 23.9 14.2" class="st8"/><polygon points="21.5 15.4 21.5 15.5 22.6 15 22.6 14.9" class="st8"/><polygon points="21.1 15.5 21.1 15.7 21.4 15.5 21.4 15.4" class="st8"/><polygon points="21.1 15.7 21.2 15.8 24.1 14.5 24 14.4" class="st8"/><polygon points="22.8 15.2 22.8 15.3 23.9 14.7 23.9 14.6" class="st8"/><polygon points="21.6 15.8 21.6 15.9 22.7 15.3 22.6 15.2" class="st8"/><polygon points="21.2 15.9 21.2 16 21.5 15.9 21.4 15.8" class="st8"/><polygon points="21.3 16.5 21.3 16.6 22.1 16.2 22.1 16.1" class="st8"/><polygon points="21.7 16.5 21.7 16.6 22.8 16.1 22.8 16" class="st8"/><polygon points="21.3 16.7 21.4 16.8 21.6 16.7 21.6 16.6" class="st8"/><polygon points="22.1 15.7 22.2 15.8 23.5 15.1 23.5 15" class="st8"/><polygon points="21.2 16.1 21.2 16.2 22 15.9 22 15.8" class="st8"/></g><polygon points="19.8 11.8 20.3 14.2 24 12.4 23.5 9.9" class="st26"/><g><polygon points="20.3 12.1 20.3 12.2 21.1 11.8 21.1 11.7" class="st8"/><polygon points="21.2 11.6 21.3 11.7 22.6 11.1 22.6 11" class="st8"/><polygon points="21.9 11.5 22 11.6 23.2 11 23.2 10.9" class="st8"/><polygon points="20.8 12.1 20.8 12.2 21.8 11.7 21.8 11.6" class="st8"/><polygon points="20.4 12.3 20.4 12.4 20.6 12.2 20.6 12.1" class="st8"/><polygon points="20.4 12.5 20.4 12.6 23.3 11.2 23.3 11.1" class="st8"/><polygon points="22 11.9 22.1 12 23.2 11.5 23.2 11.4" class="st8"/><polygon points="20.8 12.5 20.9 12.6 21.9 12.1 21.9 12" class="st8"/><polygon points="20.4 12.7 20.5 12.8 20.7 12.6 20.7 12.5" class="st8"/><polygon points="20.5 13.2 20.6 13.3 21.4 12.9 21.4 12.8" class="st8"/><polygon points="21 13.2 21 13.3 22.1 12.8 22 12.7" class="st8"/><polygon points="20.6 13.4 20.6 13.5 20.9 13.4 20.9 13.3" class="st8"/><polygon points="21.4 12.4 21.4 12.5 22.8 11.9 22.8 11.8" class="st8"/><polygon points="20.5 12.9 20.5 13 21.3 12.6 21.3 12.5" class="st8"/></g><path d="M11.4,15.7l-1.4,0.7c0,0-0.1,0,0,0.1l0.3,1.4c0,0,0.1,0.1,0.1,0.1c0,0-0.1,0.1,1.4-0.7 c0,0,0.1,0,0-0.1l-0.3-1.4C11.6,15.7,11.5,15.7,11.4,15.7z M10.5,17.7l-0.2-1.2l1.2-0.6l0.2,1.2L10.5,17.7z" class="st29"/><path d="M10.7,16.6c-0.1-0.1-0.3-0.1-0.3,0c-0.1,0.1,0,0.2,0.1,0.3l0.9,0.5l0.6-2.5L11,17L10.7,16.6z" class="st28"/><polygon points="12.6 15.2 13.1 17.7 16.8 15.8 16.3 13.4" class="st26"/><g><polygon points="13.1 15.5 13.1 15.6 13.9 15.2 13.9 15.1" class="st8"/><polygon points="14 15.1 14.1 15.2 15.4 14.5 15.4 14.4" class="st8"/><polygon points="14.8 14.9 14.8 15 16 14.5 16 14.4" class="st8"/><polygon points="13.6 15.5 13.6 15.6 14.6 15.1 14.6 15" class="st8"/><polygon points="13.2 15.7 13.2 15.8 13.4 15.7 13.4 15.6" class="st8"/><polygon points="13.2 15.9 13.2 16 16.1 14.6 16.1 14.5" class="st8"/><polygon points="14.8 15.3 14.9 15.4 16 14.9 16 14.8" class="st8"/><polygon points="13.6 15.9 13.7 16 14.7 15.5 14.7 15.4" class="st8"/><polygon points="13.2 16.1 13.3 16.2 13.5 16.1 13.5 16" class="st8"/><polygon points="13.4 16.7 13.4 16.8 14.2 16.4 14.2 16.3" class="st8"/><polygon points="13.8 16.7 13.8 16.8 14.9 16.3 14.9 16.2" class="st8"/><polygon points="13.4 16.9 13.4 17 13.7 16.8 13.7 16.7" class="st8"/><polygon points="14.2 15.8 14.2 16 15.6 15.3 15.6 15.2" class="st8"/><polygon points="13.3 16.3 13.3 16.4 14.1 16 14.1 15.9" class="st8"/></g><g><polygon points="18 19.4 14.9 21 14.8 20.7 17.9 19" class="st26"/><polygon points="17.8 18.7 14.7 20.4 14.6 20.1 17.7 18.4" class="st26"/><polygon points="18.1 19.9 15 21.6 14.9 21.3 18 19.6" class="st26"/><polygon points="18.2 20.6 15.1 22.3 15.1 22 18.1 20.3" class="st26"/><polygon points="18.3 21.3 15.2 22.9 15.2 22.6 18.3 20.9" class="st26"/><polygon points="18.5 21.9 15.4 23.6 15.3 23.2 18.4 21.6" class="st26"/><polygon points="14.6 21.2 11.5 22.8 11.4 22.5 14.5 20.9" class="st26"/><polygon points="14.4 20.5 11.3 22.2 11.2 21.9 14.3 20.2" class="st26"/><polygon points="14.7 21.8 11.6 23.5 11.5 23.2 14.6 21.5" class="st26"/><polygon points="14.8 22.4 11.7 24.1 11.6 23.8 14.7 22.1" class="st26"/><polygon points="14.9 23.1 11.8 24.7 11.8 24.4 14.9 22.7" class="st26"/><polygon points="15.1 23.7 12 25.4 11.9 25 15 23.4" class="st26"/><polygon points="16.5 18 11.7 20.5 11.8 21 16.6 18.4" class="st26"/></g><g><path d="M13.7,25.5c-0.2,0.1-0.4,0.4-0.5,0.7l0.7,0.4L13.7,25.5z" class="st26"/><path d="M13.9,25.6l0.2,1l-0.8,0.5c0.1,0.6,0.6,0.8,1,0.5c0.4-0.3,0.7-1,0.6-1.5 C14.8,25.6,14.3,25.3,13.9,25.6z" class="st26"/><path d="M13.1,26.3C13,26.6,13,26.9,13,27.2l0.8-0.5L13.1,26.3z" class="st30"/></g><g><path d="M15.8,24.4c-0.2,0.1-0.4,0.4-0.5,0.7l0.7,0.4L15.8,24.4z" class="st17"/><path d="M15.9,24.5l0.2,1L15.4,26c0.1,0.6,0.6,0.8,1,0.5c0.4-0.3,0.7-1,0.6-1.5 C16.8,24.4,16.4,24.2,15.9,24.5z" class="st26"/><path d="M15.2,25.1c-0.1,0.3-0.1,0.6-0.1,0.9l0.8-0.5L15.2,25.1z" class="st26"/></g><g><path d="M17.8,23.2c-0.2,0.1-0.4,0.4-0.5,0.7l0.7,0.4L17.8,23.2z" class="st26"/><path d="M18,23.3l0.2,1l-0.8,0.5c0.1,0.6,0.6,0.8,1,0.5c0.4-0.3,0.7-1,0.6-1.5C18.9,23.3,18.4,23,18,23.3z" class="st31"/><path d="M17.2,24c-0.1,0.3-0.1,0.6-0.1,0.9l0.8-0.5L17.2,24z" class="st26"/></g></g></g></g></g><g class="st22"><path d="M10.8,33.1v0.8c0,0.1,0.1,0.2,0.2,0.2l12,6.4c0.2,0.1,0.6,0.1,0.8,0l17.8-9.1c0.1-0.1,0.2-0.1,0.2-0.2 V31c0,0.1-0.1,0.2-0.2,0.2l-17.8,9.1c-0.2,0.1-0.6,0.1-0.8,0l-12-7C10.8,33.3,10.8,33.2,10.8,33.1z" class="st27"/><g><polygon points="11.7 34 11.7 34.4 12.6 35 12.6 34.6" class="st32"/><polygon points="12.9 34.7 12.9 35.1 13.8 35.6 13.8 35.3" class="st32"/></g><path d="M41.6,31.2c-0.2,0.1-16.1,8.2-17.8,9.1c-0.2,0.1-0.6,0.1-0.8,0l-12-7c-0.2-0.1-0.2-0.3,0-0.4l17.8-9.1 c0.2-0.1,0.6-0.1,0.8,0c7.2,4.2,4.7,2.7,12,7C41.8,30.9,41.8,31.1,41.6,31.2z" class="st9"/><path d="M26.6,33.6c-0.1,0-0.1,0.1,0,0.2l4,2.3c0.1,0.1,0.2,0.1,0.3,0l6.2-3.2c0.1,0,0.1-0.1,0-0.2l-4-2.3 c-0.1-0.1-0.2-0.1-0.3,0L26.6,33.6z" class="st33"/><g><path d="M27.9,24.8c-0.1,0-0.1,0.1,0,0.1l0.3,0.2c0.1,0,0.2,0,0.3,0l0.7-0.4c0.1,0,0.1-0.1,0-0.1l-0.3-0.2 c-0.1,0-0.2,0-0.3,0L27.9,24.8z" class="st32"/><path d="M28.7,25.3c-0.1,0-0.1,0.1,0,0.1l0.7,0.4c0.1,0,0.2,0,0.3,0l0.7-0.4c0.1,0,0.1-0.1,0-0.1l-0.7-0.4 c-0.1,0-0.2,0-0.3,0L28.7,25.3z" class="st32"/><path d="M29.3,26.3c-0.1,0-0.1,0.1,0,0.1l0.7,0.4c0.1,0,0.2,0,0.3,0l1.3-0.7c0.1,0,0.1-0.1,0-0.1l-0.7-0.4 c-0.1,0-0.2,0-0.3,0L29.3,26.3z" class="st32"/><path d="M30.9,29.4c-0.1,0-0.1,0.1,0,0.1l0.8,0.5c0.1,0,0.2,0,0.3,0l0.7-0.4c0.1,0,0.1-0.1,0-0.1L31.9,29 c-0.1,0-0.2,0-0.3,0L30.9,29.4z" class="st32"/><path d="M29.6,28.7c-0.1,0-0.1,0.1,0,0.1l0.7,0.4c0.1,0,0.2,0,0.3,0l0.7-0.4c0.1,0,0.1-0.1,0-0.1l-0.7-0.4 c-0.1,0-0.2,0-0.3,0L29.6,28.7z" class="st32"/><path d="M29,27.7c-0.1,0-0.1,0.1,0,0.1l0.7,0.4c0.1,0,0.2,0,0.3,0l0.7-0.4c0.1,0,0.1-0.1,0-0.1l-0.7-0.4 c-0.1,0-0.2,0-0.3,0L29,27.7z" class="st32"/><path d="M30.3,27.1c-0.1,0-0.1,0.1,0,0.1l0.7,0.4c0.1,0,0.2,0,0.3,0l1.6-0.8c0.1,0,0.1-0.1,0-0.1l-0.7-0.4 c-0.1,0-0.2,0-0.3,0L30.3,27.1z" class="st32"/><g class="st22"><path d="M26.6,25.5c-0.1,0-0.1,0.1,0,0.1l0.3,0.2c0.1,0,0.2,0,0.3,0l0.7-0.4c0.1,0,0.1-0.1,0-0.1l-0.3-0.2 c-0.1,0-0.2,0-0.3,0L26.6,25.5z" class="st32"/><path d="M25.4,26.1c-0.1,0-0.1,0.1,0,0.1l0.3,0.2c0.1,0,0.2,0,0.3,0l0.7-0.4c0.1,0,0.1-0.1,0-0.1l-0.3-0.2 c-0.1,0-0.2,0-0.3,0L25.4,26.1z" class="st32"/><path d="M27.5,25.9c-0.1,0-0.1,0.1,0,0.1l0.7,0.4c0.1,0,0.2,0,0.3,0l0.7-0.4c0.1,0,0.1-0.1,0-0.1l-0.7-0.4 c-0.1,0-0.2,0-0.3,0L27.5,25.9z" class="st32"/><path d="M26.3,26.5c-0.1,0-0.1,0.1,0,0.1l0.7,0.4c0.1,0,0.2,0,0.3,0l0.7-0.4c0.1,0,0.1-0.1,0-0.1l-0.7-0.4 c-0.1,0-0.2,0-0.3,0L26.3,26.5z" class="st32"/></g><path d="M33.5,28.1c-0.1,0-0.1,0.1,0,0.1l0.8,0.5c0.1,0,0.2,0,0.3,0l0.7-0.4c0.1,0,0.1-0.1,0-0.1l-0.8-0.5 c-0.1,0-0.2,0-0.3,0L33.5,28.1z" class="st32"/><path d="M32.2,28.7c-0.1,0-0.1,0.1,0,0.1l0.8,0.5c0.1,0,0.2,0,0.3,0L34,29c0.1,0,0.1-0.1,0-0.1l-0.8-0.5 c-0.1,0-0.2,0-0.3,0L32.2,28.7z" class="st32"/><path d="M31,28c-0.1,0-0.1,0.1,0,0.1l0.7,0.4c0.1,0,0.2,0,0.3,0l2-1c0.1,0,0.1-0.1,0-0.1L33.2,27 c-0.1,0-0.2,0-0.3,0L31,28z" class="st32"/><path d="M27.9,28.3c-0.1,0-0.1,0.1,0,0.1l0.7,0.4c0.1,0,0.2,0,0.3,0l0.7-0.4c0.1,0,0.1-0.1,0-0.1l-0.7-0.4 c-0.1,0-0.2,0-0.3,0L27.9,28.3z" class="st32"/><path d="M27,27.5c-0.1,0-0.1,0.1,0,0.1l0.7,0.4c0.1,0,0.2,0,0.3,0l0.7-0.4c0.1,0,0.1-0.1,0-0.1L28,27.1 c-0.1,0-0.2,0-0.3,0L27,27.5z" class="st32"/><path d="M28.1,26.9c-0.1,0-0.1,0.1,0,0.1l0.7,0.4c0.1,0,0.2,0,0.3,0l0.7-0.4c0.1,0,0.1-0.1,0-0.1l-0.7-0.4 c-0.1,0-0.2,0-0.3,0L28.1,26.9z" class="st32"/><path d="M24.2,26.7c-0.1,0-0.1,0.1,0,0.1l0.3,0.2c0.1,0,0.2,0,0.3,0l0.7-0.4c0.1,0,0.1-0.1,0-0.1l-0.3-0.2 c-0.1,0-0.2,0-0.3,0L24.2,26.7z" class="st32"/><path d="M25.8,28.1c-0.1,0-0.1,0.1,0,0.1l0.7,0.4c0.1,0,0.2,0,0.3,0l0.7-0.4c0.1,0,0.1-0.1,0-0.1l-0.7-0.4 c-0.1,0-0.2,0-0.3,0L25.8,28.1z" class="st32"/><path d="M26.7,28.9c-0.1,0-0.1,0.1,0,0.1l0.7,0.4c0.1,0,0.2,0,0.3,0l0.7-0.4c0.1,0,0.1-0.1,0-0.1l-0.7-0.4 c-0.1,0-0.2,0-0.3,0L26.7,28.9z" class="st32"/><path d="M19.2,29.2c-0.1,0-0.1,0.1,0,0.1l0.3,0.2c0.1,0,0.2,0,0.3,0l0.7-0.4c0.1,0,0.1-0.1,0-0.1l-0.3-0.2 c-0.1,0-0.2,0-0.3,0L19.2,29.2z" class="st32"/><path d="M29.5,30.1c-0.1,0-0.1,0.1,0,0.1l0.8,0.5c0.1,0,0.2,0,0.3,0l1-0.5c0.1,0,0.1-0.1,0-0.1l-0.8-0.5 c-0.1,0-0.2,0-0.3,0L29.5,30.1z" class="st32"/><path d="M21.1,34.4c-0.1,0-0.1,0.1,0,0.1l0.8,0.5c0.1,0,0.2,0,0.3,0l0.8-0.4c0.1,0,0.1-0.1,0-0.1l-0.8-0.5 c-0.1,0-0.2,0-0.3,0L21.1,34.4z" class="st32"/><path d="M22.3,33.8c-0.1,0-0.1,0.1,0,0.1l0.8,0.5c0.1,0,0.2,0,0.3,0l1-0.5c0.1,0,0.1-0.1,0-0.1l-0.8-0.5 c-0.1,0-0.2,0-0.3,0L22.3,33.8z" class="st32"/><path d="M21.3,33c-0.1,0-0.1,0.1,0,0.1l0.7,0.4c0.1,0,0.2,0,0.3,0l0.7-0.4c0.1,0,0.1-0.1,0-0.1l-0.7-0.4 c-0.1,0-0.2,0-0.3,0L21.3,33z" class="st32"/><path d="M16.8,30.5c-0.1,0-0.1,0.1,0,0.1l0.3,0.2c0.1,0,0.2,0,0.3,0l0.7-0.4c0.1,0,0.1-0.1,0-0.1l-0.3-0.2 c-0.1,0-0.2,0-0.3,0L16.8,30.5z" class="st32"/><path d="M18,29.9c-0.1,0-0.1,0.1,0,0.1l0.3,0.2c0.1,0,0.2,0,0.3,0l0.7-0.4c0.1,0,0.1-0.1,0-0.1L19,29.5 c-0.1,0-0.2,0-0.3,0L18,29.9z" class="st32"/><path d="M18.7,31.7c-0.1,0-0.1,0.1,0,0.1l0.7,0.4c0.1,0,0.2,0,0.3,0l0.7-0.4c0.1,0,0.1-0.1,0-0.1l-0.7-0.4 c-0.1,0-0.2,0-0.3,0L18.7,31.7z" class="st32"/><path d="M19.6,32.6c-0.1,0-0.1,0.1,0,0.1l0.7,0.4c0.1,0,0.2,0,0.3,0l0.7-0.4c0.1,0,0.1-0.1,0-0.1l-0.7-0.4 c-0.1,0-0.2,0-0.3,0L19.6,32.6z" class="st32"/><path d="M15,34.9C15,34.9,15,35,15,35l0.7,0.4c0.1,0,0.2,0,0.3,0l1.5-0.8c0.1,0,0.1-0.1,0-0.1l-0.7-0.4 c-0.1,0-0.2,0-0.3,0L15,34.9z" class="st32"/><path d="M14.3,31.8c-0.1,0-0.1,0.1,0,0.1l0.3,0.2c0.1,0,0.2,0,0.3,0l0.7-0.4c0.1,0,0.1-0.1,0-0.1l-0.3-0.2 c-0.1,0-0.2,0-0.3,0L14.3,31.8z" class="st32"/><path d="M18.7,34.3c-0.1,0-0.1,0.1,0,0.1l0.7,0.4c0.1,0,0.2,0,0.3,0l0.7-0.4c0.1,0,0.1-0.1,0-0.1l-0.7-0.4 c-0.1,0-0.2,0-0.3,0L18.7,34.3z" class="st32"/><path d="M18.3,33.2c-0.1,0-0.1,0.1,0,0.1l0.7,0.4c0.1,0,0.2,0,0.3,0l0.7-0.4c0.1,0,0.1-0.1,0-0.1l-0.7-0.4 c-0.1,0-0.2,0-0.3,0L18.3,33.2z" class="st32"/><g class="st22"><path d="M16.8,31.4c-0.1,0-0.1,0.1,0,0.1l0.7,0.4c0.1,0,0.2,0,0.3,0l0.7-0.4c0.1,0,0.1-0.1,0-0.1L17.8,31 c-0.1,0-0.2,0-0.3,0L16.8,31.4z" class="st32"/><path d="M15.6,32c-0.1,0-0.1,0.1,0,0.1l0.7,0.4c0.1,0,0.2,0,0.3,0l0.7-0.4c0.1,0,0.1-0.1,0-0.1l-0.7-0.4 c-0.1,0-0.2,0-0.3,0L15.6,32z" class="st32"/><path d="M13,32.4c-0.1,0-0.1,0.1,0,0.1l0.3,0.2c0.1,0,0.2,0,0.3,0l0.7-0.4c0.1,0,0.1-0.1,0-0.1L14,32 c-0.1,0-0.2,0-0.3,0L13,32.4z" class="st32"/><path d="M17.5,32.3c-0.1,0-0.1,0.1,0,0.1l0.7,0.4c0.1,0,0.2,0,0.3,0l0.7-0.4c0.1,0,0.1-0.1,0-0.1L18.5,32 c-0.1,0-0.2,0-0.3,0L17.5,32.3z" class="st32"/><path d="M14.3,32.6c-0.1,0-0.1,0.1,0,0.1l0.7,0.4c0.1,0,0.2,0,0.3,0l0.7-0.4c0.1,0,0.1-0.1,0-0.1l-0.7-0.4 c-0.1,0-0.2,0-0.3,0L14.3,32.6z" class="st32"/><path d="M11.8,33c-0.1,0-0.1,0.1,0,0.1l0.3,0.2c0.1,0,0.2,0,0.3,0l0.7-0.4c0.1,0,0.1-0.1,0-0.1l-0.3-0.2 c-0.1,0-0.2,0-0.3,0L11.8,33z" class="st32"/><path d="M16.2,33c-0.1,0-0.1,0.1,0,0.1l0.7,0.4c0.1,0,0.2,0,0.3,0l0.7-0.4c0.1,0,0.1-0.1,0-0.1l-0.7-0.4 c-0.1,0-0.2,0-0.3,0L16.2,33z" class="st32"/><path d="M12.6,33.5c-0.1,0-0.1,0.1,0,0.1l0.7,0.4c0.1,0,0.2,0,0.3,0l1.3-0.7c0.1,0,0.1-0.1,0-0.1l-0.7-0.4 c-0.1,0-0.2,0-0.3,0L12.6,33.5z" class="st32"/><path d="M15,33.6c-0.1,0-0.1,0.1,0,0.1l0.7,0.4c0.1,0,0.2,0,0.3,0l0.7-0.4c0.1,0,0.1-0.1,0-0.1L16,33.2 c-0.1,0-0.2,0-0.3,0L15,33.6z" class="st32"/><path d="M13.8,34.2c-0.1,0-0.1,0.1,0,0.1l0.7,0.4c0.1,0,0.2,0,0.3,0l0.7-0.4c0.1,0,0.1-0.1,0-0.1l-0.7-0.4 c-0.1,0-0.2,0-0.3,0L13.8,34.2z" class="st32"/></g><g class="st22"><path d="M21.5,29c-0.1,0-0.1,0.1,0,0.1l0.7,0.4c0.1,0,0.2,0,0.3,0l0.7-0.4c0.1,0,0.1-0.1,0-0.1l-0.7-0.4 c-0.1,0-0.2,0-0.3,0L21.5,29z" class="st32"/><path d="M23.4,29.3c-0.1,0-0.1,0.1,0,0.1l0.7,0.4c0.1,0,0.2,0,0.3,0l0.7-0.4c0.1,0,0.1-0.1,0-0.1l-0.7-0.4 c-0.1,0-0.2,0-0.3,0L23.4,29.3z" class="st32"/><path d="M20.3,29.6c-0.1,0-0.1,0.1,0,0.1l0.7,0.4c0.1,0,0.2,0,0.3,0l0.7-0.4c0.1,0,0.1-0.1,0-0.1l-0.7-0.4 c-0.1,0-0.2,0-0.3,0L20.3,29.6z" class="st32"/><path d="M22.2,29.9c-0.1,0-0.1,0.1,0,0.1l0.7,0.4c0.1,0,0.2,0,0.3,0l0.7-0.4c0.1,0,0.1-0.1,0-0.1l-0.7-0.4 c-0.1,0-0.2,0-0.3,0L22.2,29.9z" class="st32"/><path d="M24.3,30.1c-0.1,0-0.1,0.1,0,0.1l0.7,0.4c0.1,0,0.2,0,0.3,0l0.7-0.4c0.1,0,0.1-0.1,0-0.1l-0.7-0.4 c-0.1,0-0.2,0-0.3,0L24.3,30.1z" class="st32"/><path d="M19.2,30.2c-0.1,0-0.1,0.1,0,0.1l0.7,0.4c0.1,0,0.2,0,0.3,0l0.7-0.4c0.1,0,0.1-0.1,0-0.1l-0.7-0.4 c-0.1,0-0.2,0-0.3,0L19.2,30.2z" class="st32"/><path d="M26,30.5c-0.1,0-0.1,0.1,0,0.1l0.7,0.4c0.1,0,0.2,0,0.3,0l0.7-0.4c0.1,0,0.1-0.1,0-0.1L27,30.2 c-0.1,0-0.2,0-0.3,0L26,30.5z" class="st32"/><path d="M21,30.5c-0.1,0-0.1,0.1,0,0.1l0.7,0.4c0.1,0,0.2,0,0.3,0l0.7-0.4c0.1,0,0.1-0.1,0-0.1L22,30.1 c-0.1,0-0.2,0-0.3,0L21,30.5z" class="st32"/><path d="M23.1,30.7c-0.1,0-0.1,0.1,0,0.1l0.7,0.4c0.1,0,0.2,0,0.3,0l0.7-0.4c0.1,0,0.1-0.1,0-0.1l-0.7-0.4 c-0.1,0-0.2,0-0.3,0L23.1,30.7z" class="st32"/><path d="M18,30.8c-0.1,0-0.1,0.1,0,0.1l0.7,0.4c0.1,0,0.2,0,0.3,0l0.7-0.4c0.1,0,0.1-0.1,0-0.1L19,30.4 c-0.1,0-0.2,0-0.3,0L18,30.8z" class="st32"/><path d="M24.8,31.1c-0.1,0-0.1,0.1,0,0.1l0.7,0.4c0.1,0,0.2,0,0.3,0l0.7-0.4c0.1,0,0.1-0.1,0-0.1l-0.7-0.4 c-0.1,0-0.2,0-0.3,0L24.8,31.1z" class="st32"/><path d="M19.8,31.1c-0.1,0-0.1,0.1,0,0.1l0.7,0.4c0.1,0,0.2,0,0.3,0l0.7-0.4c0.1,0,0.1-0.1,0-0.1l-0.7-0.4 c-0.1,0-0.2,0-0.3,0L19.8,31.1z" class="st32"/><path d="M22,31.3c-0.1,0-0.1,0.1,0,0.1l0.7,0.4c0.1,0,0.2,0,0.3,0l0.7-0.4c0.1,0,0.1-0.1,0-0.1L23,31 c-0.1,0-0.2,0-0.3,0L22,31.3z" class="st32"/><path d="M23.6,31.7c-0.1,0-0.1,0.1,0,0.1l0.7,0.4c0.1,0,0.2,0,0.3,0l0.7-0.4c0.1,0,0.1-0.1,0-0.1l-0.7-0.4 c-0.1,0-0.2,0-0.3,0L23.6,31.7z" class="st32"/><path d="M20.8,31.9c-0.1,0-0.1,0.1,0,0.1l0.7,0.4c0.1,0,0.2,0,0.3,0l0.7-0.4c0.1,0,0.1-0.1,0-0.1l-0.7-0.4 c-0.1,0-0.2,0-0.3,0L20.8,31.9z" class="st32"/><path d="M22.5,32.4c-0.1,0-0.1,0.1,0,0.1l0.7,0.4c0.1,0,0.2,0,0.3,0l0.7-0.4c0.1,0,0.1-0.1,0-0.1L23.5,32 c-0.1,0-0.2,0-0.3,0L22.5,32.4z" class="st32"/><path d="M23.9,33c-0.1,0-0.1,0.1,0,0.1l0.8,0.5c0.1,0,0.2,0,0.3,0l5.1-2.6c0.1,0,0.1-0.1,0-0.1l-0.8-0.5 c-0.1,0-0.2,0-0.3,0L23.9,33z" class="st32"/></g><path d="M20.5,28.6c-0.1,0-0.1,0.1,0,0.1l0.3,0.2c0.1,0,0.2,0,0.3,0l0.7-0.4c0.1,0,0.1-0.1,0-0.1l-0.3-0.2 c-0.1,0-0.2,0-0.3,0L20.5,28.6z" class="st32"/><path d="M21.7,28c-0.1,0-0.1,0.1,0,0.1l0.3,0.2c0.1,0,0.2,0,0.3,0l0.7-0.4c0.1,0,0.1-0.1,0-0.1l-0.3-0.2 c-0.1,0-0.2,0-0.3,0L21.7,28z" class="st32"/><path d="M22.9,27.4c-0.1,0-0.1,0.1,0,0.1l0.3,0.2c0.1,0,0.2,0,0.3,0l0.7-0.4c0.1,0,0.1-0.1,0-0.1L23.9,27 c-0.1,0-0.2,0-0.3,0L22.9,27.4z" class="st32"/><path d="M25.1,27.2c-0.1,0-0.1,0.1,0,0.1l0.7,0.4c0.1,0,0.2,0,0.3,0l0.7-0.4c0.1,0,0.1-0.1,0-0.1l-0.7-0.4 c-0.1,0-0.2,0-0.3,0L25.1,27.2z" class="st32"/><path d="M23.9,27.8c-0.1,0-0.1,0.1,0,0.1l0.7,0.4c0.1,0,0.2,0,0.3,0l0.7-0.4c0.1,0,0.1-0.1,0-0.1l-0.7-0.4 c-0.1,0-0.2,0-0.3,0L23.9,27.8z" class="st32"/><path d="M27.2,29.9c-0.1,0-0.1,0.1,0,0.1l0.7,0.4c0.1,0,0.2,0,0.3,0l0.7-0.4c0.1,0,0.1-0.1,0-0.1l-0.7-0.4 c-0.1,0-0.2,0-0.3,0L27.2,29.9z" class="st32"/><path d="M22.7,28.4c-0.1,0-0.1,0.1,0,0.1l0.7,0.4c0.1,0,0.2,0,0.3,0l0.7-0.4c0.1,0,0.1-0.1,0-0.1L23.7,28 c-0.1,0-0.2,0-0.3,0L22.7,28.4z" class="st32"/><path d="M24.6,28.7c-0.1,0-0.1,0.1,0,0.1l0.7,0.4c0.1,0,0.2,0,0.3,0l0.7-0.4c0.1,0,0.1-0.1,0-0.1l-0.7-0.4 c-0.1,0-0.2,0-0.3,0L24.6,28.7z" class="st32"/><path d="M25.5,29.5c-0.1,0-0.1,0.1,0,0.1l0.7,0.4c0.1,0,0.2,0,0.3,0l0.7-0.4c0.1,0,0.1-0.1,0-0.1l-0.7-0.4 c-0.1,0-0.2,0-0.3,0L25.5,29.5z" class="st32"/><path d="M28.4,29.3c-0.1,0-0.1,0.1,0,0.1l0.7,0.4c0.1,0,0.2,0,0.3,0l0.7-0.4c0.1,0,0.1-0.1,0-0.1L29.4,29 c-0.1,0-0.2,0-0.3,0L28.4,29.3z" class="st32"/><path d="M17,33.9C17,33.9,17,34,17,34l0.7,0.4c0.1,0,0.2,0,0.3,0l0.7-0.4c0.1,0,0.1-0.1,0-0.1L18,33.5 c-0.1,0-0.2,0-0.3,0L17,33.9z" class="st32"/><path d="M16.2,35.6c-0.1,0-0.1,0.1,0,0.1l0.7,0.4c0.1,0,0.2,0,0.3,0l2.1-1.1c0.1,0,0.1-0.1,0-0.1l-0.7-0.4 c-0.1,0-0.2,0-0.3,0L16.2,35.6z" class="st32"/><path d="M18.6,35.7c-0.1,0-0.1,0.1,0,0.1l0.8,0.5c0.1,0,0.2,0,0.3,0l0.8-0.4c0.1,0,0.1-0.1,0-0.1l-0.8-0.5 c-0.1,0-0.2,0-0.3,0L18.6,35.7z" class="st32"/><path d="M20.3,35.4c-0.1,0-0.1,0.1,0,0.1l0.4,0.2c0.1,0,0.2,0,0.3,0l0.8-0.4c0.1,0,0.1-0.1,0-0.1L21.3,35 c-0.1,0-0.2,0-0.3,0L20.3,35.4z" class="st32"/><path d="M17.9,36.6c-0.1,0-0.1,0.1,0,0.1l0.4,0.2c0.1,0,0.2,0,0.3,0l0.8-0.4c0.1,0,0.1-0.1,0-0.1l-0.4-0.2 c-0.1,0-0.2,0-0.3,0L17.9,36.6z" class="st32"/><path d="M15.5,31.1c-0.1,0-0.1,0.1,0,0.1l0.3,0.2c0.1,0,0.2,0,0.3,0l0.7-0.4c0.1,0,0.1-0.1,0-0.1l-0.3-0.2 c-0.1,0-0.2,0-0.3,0L15.5,31.1z" class="st32"/><path d="M20,33.6c-0.1,0-0.1,0.1,0,0.1l0.7,0.4c0.1,0,0.2,0,0.3,0l0.7-0.4c0.1,0,0.1-0.1,0-0.1L21,33.2 c-0.1,0-0.2,0-0.3,0L20,33.6z" class="st32"/></g></g></g><g><g class="st1"><ellipse id="Axonometric_Centered_Rounded_Rectangle" cx="25.2" cy="32.6" class="st32" rx="1.8" ry="1"/></g><g><g><path d="M23.6,32.1c0,0-0.1,0.3,0.1,0.6c0.1,0.3,1.1,0.7,1.2,0.7c0.2,0.1,0.4,0,0.5-0.2c-0.3-0.2-1.6-1-1.6-1 L23.6,32.1z" class="st5"/><path d="M25.4,33.2c-0.1,0.1-0.3,0.2-0.5,0.2c-0.2-0.1-1.1-0.5-1.2-0.7c-0.1-0.1-0.2-0.6-0.1-0.6 c0-0.1,0.1-0.1,0.2-0.1c0.1,0,0.6,0.2,0.9,0.2c0.2,0,0.5,0.3,0.6,0.4C25.3,32.7,25.4,33.2,25.4,33.2z" class="st34"/></g><g><path d="M25,31.4c0,0-0.1,0.2,0.1,0.5c0.1,0.3,1,0.6,1.1,0.7c0.1,0.1,0.4,0,0.4-0.2c-0.3-0.2-1.4-0.9-1.4-0.9 L25,31.4z" class="st5"/><path d="M26.6,32.4c-0.1,0.1-0.3,0.2-0.4,0.1c-0.2,0-1-0.5-1.1-0.6c-0.1-0.1-0.2-0.5-0.1-0.6 c0,0,0.1-0.1,0.2-0.1c0.1,0,0.6,0.2,0.8,0.2c0.2,0,0.5,0.3,0.6,0.4C26.6,31.9,26.7,32.3,26.6,32.4z" class="st34"/></g><g><path d="M23.9,21.1c-0.1,0.1-0.1,0.2-0.2,0.4c-0.1-0.1-0.2-0.2-0.3-0.3c-0.1,0.1-0.5-0.2-0.6-0.3 c-0.1-0.1-0.1-0.4,0-0.3c0.1,0.1,0.4,0.2,0.5,0.2C23.6,20.7,23.9,21,23.9,21.1z" class="st35"/><path d="M23.9,21.1c-0.1,0.1-0.1,0.2-0.2,0.4c-0.1-0.1-0.2-0.2-0.3-0.3c-0.1,0.1-0.5-0.2-0.6-0.3 c-0.1-0.1-0.1-0.3,0-0.3c0.4,0.3,0.4,0.3,0.7,0.5l0.2-0.1C23.8,21,23.9,21,23.9,21.1z" class="st36"/><path d="M25.5,22.4c0,0.2-0.2,0.3-0.3,0.3c-0.5-0.1-1.3-1.1-1.6-1.5c0-0.1,0.2-0.3,0.3-0.3 c1.6,1.2,1.3,1,1.3,1C25.4,22.1,25.5,22.2,25.5,22.4z" class="st37"/><path d="M26.5,23.4c-0.5,0-1.2-0.5-1.6-0.7c-0.1-0.1-0.2-0.3-0.1-0.4c0.1-0.1,0.3-0.1,0.4-0.1 c0.3,0.1,0.8,0.2,1.2,0.3c0.6,0.2,0.4,0.6,0.4,0.6C26.9,23.3,26.8,23.4,26.5,23.4z" class="st37"/></g><g><path d="M21.8,19.7l-1.4-0.5c-0.1,0-0.2,0.1-0.1,0.2l0.8,1.3L21.8,19.7z" class="st35"/><path d="M21,20.7L21,20.7c-0.9-1.4-0.8-1.3-0.8-1.3l0.8,1L21,20.7z" class="st36"/><path d="M20.3,19.3C20.3,19.2,20.3,19.2,20.3,19.3l1.5,0.5l-0.1,0.1l-0.1,0l-0.1-0.2 C21.5,19.8,20.3,19.2,20.3,19.3z" class="st38"/><path d="M27.3,24.1l-5.5-4.3c-0.1-0.1-0.2-0.1-0.3,0l5.5,4.3C27.1,24,27.3,24,27.3,24.1z" class="st17"/><path d="M27,24.1c-0.3,0.1-0.5,0.4-0.5,0.7c0,0.3,0.1,0.4,0.4,0.3c0.3-0.1,0.5-0.4,0.5-0.7 C27.5,24.1,27.3,24,27,24.1z" class="st39"/><path d="M21.1,20.8l5.5,4.3c-0.3-0.2,0-0.8,0.5-1l-5.5-4.3C21.1,19.9,20.8,20.6,21.1,20.8z" class="st16"/><path d="M27.1,24.2c-0.3,0.1-0.5,0.4-0.5,0.7c0,0.3,0.1,0.4,0.4,0.3c0.3-0.1,0.5-0.4,0.5-0.7 C27.6,24.2,27.4,24.1,27.1,24.2z" class="st39"/><path d="M28,24.6l-0.5-0.4c-0.1-0.1-0.2-0.1-0.3,0l0.5,0.4C27.8,24.6,27.9,24.6,28,24.6z" class="st30"/><path d="M26.7,25.2l0.5,0.4c-0.3-0.2,0-0.8,0.5-1l-0.5-0.4C26.7,24.3,26.4,25,26.7,25.2z" class="st11"/><path d="M27.7,24.6c-0.3,0.1-0.5,0.4-0.5,0.7c0,0.3,0.1,0.4,0.4,0.3c0.3-0.1,0.5-0.4,0.5-0.7 C28.1,24.6,28,24.5,27.7,24.6z" class="st40"/><path d="M21,20.3l5.5,4.3c0,0.1-0.1,0.3,0.1,0.4l-5.5-4.3C21,20.7,21,20.5,21,20.3z" class="st18"/><path d="M27.3,24.1c-0.1-0.1-0.2-0.1-0.3,0c-0.4,0.2-0.7,0.8-0.5,1l0.1,0.1c-0.3-0.2,0-0.8,0.5-1 c0.1-0.1,0.2,0,0.3,0L27.3,24.1z" class="st12"/><path d="M27.2,25.2c0,0.1-0.1,0.3,0.1,0.4l-0.5-0.4c-0.1-0.1-0.1-0.3-0.1-0.4C27,25.1,27.2,25.2,27.2,25.2z" class="st40"/><path d="M20.4,19.3l0.4,0.1c-0.1,0.1-0.3,0.2-0.3,0.4l-0.2-0.3C20.2,19.3,20.3,19.2,20.4,19.3z" class="st7"/><path d="M20.5,19.7C20.5,19.7,20.5,19.7,20.5,19.7c-0.3-0.3-0.3-0.3-0.3-0.3L20.5,19.7z" class="st41"/><path d="M20.7,19.4c-0.2-0.1-0.4-0.2-0.5-0.2C20.3,19.2,20.3,19.2,20.7,19.4C20.8,19.4,20.7,19.4,20.7,19.4z" class="st27"/></g><path d="M25.4,28.5c0,0.5,0.1,0.5,0.3,3.4c0.1,0.1,0.2,0.2,0.3,0.2c0.3,0.1,0.6-0.2,0.6-0.2 c0.2-0.8-0.1-2.8-0.1-3c0-0.2,0-2.4,0-2.4c-0.8,0.2-0.6,0.1-1.1,0.3C25.4,26.7,25.4,27.8,25.4,28.5z" class="st42"/><path d="M26,32.1c-0.1,0-0.2-0.1-0.3-0.2c0,0-0.1-2.4-0.3-3c-0.1-0.5-0.1-2.2-0.1-2.2l0.4-0.1l0,0 c0,0-0.2,1.3-0.1,2.2c0,0.9,0.2,2.7,0.2,2.9C25.9,31.8,25.9,31.9,26,32.1z" class="st43"/><path d="M24.3,29.6c0,0.5,0,3,0,3c0.1,0.3,0.7,0.3,1,0.2c0.1-0.4,0.1-3.2,0.1-3.2c0.1-1.4,0.2-2.8,0.2-2.8 c-0.2-0.2-0.5-0.4-0.8-0.4c-0.2,0-0.4,0-0.5,0.3C24.2,27.5,24.3,29.1,24.3,29.6z" class="st42"/><path d="M24.3,29.6c0,0.5,0,3,0,3c0,0.2,0.2,0.2,0.3,0.2c0-0.5,0.1-1.5,0-1.9c-0.1-0.6,0-1.3-0.1-2.3 c-0.1-1-0.3-1.3,0-1.2c0.2,0.1,0.4-0.2,0.4-0.2l-0.1-0.8c-0.2,0-0.4,0-0.5,0.3C24.2,27.5,24.3,29.1,24.3,29.6z" class="st43"/><path d="M26.8,23.5c-0.3,0.8-0.4,1.3-0.4,1.6c0,0.3,0.1,1.4,0.2,1.6c0,0,0,0.3-1.2,0.5c0,0-0.2,0-0.4,0 c-0.4,0-0.7-0.3-0.6-0.7c0.2-0.8,0-1.7,0-2c0-0.3-0.2-0.8,0.3-1.2c0.1-0.1,0.2-0.1,0.2-0.2c0.7-0.4,1.1-0.7,1.6-0.7 c0.1,0,0.2,0,0.2,0.1C26.9,22.7,27,22.9,26.8,23.5z" class="st37"/><g><path d="M25.3,23c0,0,0.1-0.2,0-0.5c0-0.1,0-0.2-0.1-0.2c-0.1-0.2,0.6-0.1,0.8-0.1c0,0,0,0.4,0.1,0.7 C26.3,23,25.4,23.2,25.3,23z" class="st35"/><path d="M25.7,23c0-0.3-0.1-0.5-0.2-0.6l0.5-0.4c0.1,0,0.1,0,0.1,0s0,0.4,0.1,0.7C26.3,22.9,26,23,25.7,23z" class="st36"/><path d="M25.4,23C25.4,23,25.3,23,25.4,23c-0.1-0.1,0-0.3,0-0.6C25.5,22.6,25.5,22.8,25.4,23z" class="st38"/><path d="M25.7,22.5c-0.2,0.1-0.5,0.1-0.6,0c-0.2-0.2-0.1-0.3-0.1-0.5c0,0,0-0.2,0-0.3c0-0.1,0-0.1,0-0.3 c0-0.2,0.1-0.3,0.2-0.4c0.1-0.1,0.1-0.1,0.1-0.1c0,0,0.1,0,0.2,0c0.4-0.2,0.5,0,0.7,0.3c0.1,0.1,0.1,0.2,0.1,0.3 C26.4,21.9,26,22.4,25.7,22.5z" class="st35"/><path d="M25.7,22.5c-0.2,0.1-0.3,0.1-0.4,0.1c0.1,0,0.1-0.2,0.1-0.3c-0.1-0.1,0-0.3,0-0.5 c0.1-0.4-0.3-0.4-0.3-0.7c0-0.1,0-0.1,0-0.1c0,0,0,0,0.1,0l0.4-0.1c0,0,0.3,0,0.6,0.3c0.1,0.1,0.1,0.2,0.1,0.3 C26.4,21.9,26,22.4,25.7,22.5z" class="st36"/><path d="M26.4,22c-0.1,0.3-0.2,0.3-0.3,0.4c-0.2,0.2-0.7,0.1-0.5-0.1c0.2-0.2,0.2-0.3,0.1-0.4 c-0.1,0-0.2,0.2-0.3,0.1c0,0,0-0.3,0-0.3c0-0.1,0-0.4-0.2-0.5c-0.3-0.2-0.3-0.5-0.3-0.5c0.3,0.1,0.6-0.3,1.1,0 C26.6,21.1,26.6,21.6,26.4,22z" class="st24"/><path d="M26.4,21.9c0,0.1,0,0.1-0.1,0.2c-0.1,0.3-0.2,0.3-0.3,0.4c-0.2,0.2-0.7,0.1-0.5-0.1 c0.2-0.2,0.2-0.3,0.1-0.4c-0.1,0-0.2,0.2-0.3,0.1c0,0,0-0.3,0-0.3c0-0.1,0-0.4-0.2-0.5c0.2,0,0.3,0.1,0.3,0.3 c0,0.2,0.3,0.2,0.3,0.4C25.9,22.2,26.3,22.1,26.4,21.9z" class="st34"/><path d="M25.7,20.8c0.1,0,0.3,0.1,0.4,0.1c0.1,0.1,0.2,0.2,0.3,0.3c0,0,0,0,0,0c0,0,0,0,0.1,0 c0.1,0.1,0,0.4,0,0.5c0-0.1,0.1-0.4,0-0.5c0,0-0.1,0-0.1,0l0,0C26.2,21,25.9,20.9,25.7,20.8z" class="st44"/></g><path d="M25.4,22.8l-0.3,0.3c0,0,1,0.3,1.3-0.2c0-0.1,0-0.3-0.2-0.3C26.2,22.6,26.1,23,25.4,22.8z" class="st8"/><path d="M25.1,24.5c-0.3,0.7-0.1,1.9-0.1,2.6c-0.4,0-0.7-0.2-0.6-0.7c0.2-0.8,0-1.7,0-2c0-0.3-0.2-0.8,0.3-1.2 c0,0,0,0,0,0C25,23.5,25.6,23.7,25.1,24.5z" class="st6"/><g><path d="M22.6,22c-0.1,0.1-0.2,0.1-0.3,0.2c-0.1-0.1-0.1-0.2-0.2-0.3c0,0,0-0.1,0-0.2c0,0-0.1,0-0.3-0.2 c-0.1-0.1-0.2-0.2-0.2-0.3c0-0.1,0-0.2,0.1-0.3c0.1-0.1,0.2,0.2,0.5,0.3c0.3,0.1,0.2,0.2,0.3,0.3 C22.5,21.7,22.6,21.9,22.6,22z" class="st35"/><path d="M22.5,21.8c0,0.1-0.3,0.2-0.4,0.2c-0.1-0.1,0,0-0.1-0.2c0,0-0.1,0-0.3-0.2c-0.1-0.1-0.2-0.2-0.2-0.3 c0,0,0.2,0.3,0.4,0.4c0.2,0.1,0.2,0.2,0.2,0.2c0.1-0.1,0.2-0.2,0.4-0.2C22.5,21.7,22.6,21.8,22.5,21.8z" class="st36"/><path d="M23.8,23.4c-0.1,0.1-0.2,0.2-0.4,0.3c-0.6-0.3-1.3-1.7-1.3-1.7c0,0,0,0,0-0.1c0.1-0.1,0.2-0.2,0.3-0.2 c0,0,0,0,0,0c1.5,1.7,1,1.1,1.1,1.3C23.6,23,23.8,23.2,23.8,23.4z" class="st37"/><path d="M24.9,24.3c-0.5,0-1.3-0.4-1.6-0.7c-0.1-0.1-0.2-0.3-0.1-0.4c0.1-0.1,0.3-0.2,0.4-0.1 c0.3,0.1,0.8,0.2,1.2,0.3c0.6,0.2,0.5,0.6,0.5,0.6C25.3,24.1,25.1,24.3,24.9,24.3z" class="st37"/></g></g></g></g><g><polygon points="27.1 13.6 25.3 14.5 24.8 12.2 26.6 11.3" class="st27"/><polygon points="27.9 17.1 26.1 18 25.5 15.7 27.4 14.7" class="st27"/><g><polygon points="25.7 15.3 26.2 17.7 29 16.2 28.4 13.9" class="st45"/><polygon points="26.7 14.2 27 15.2 27.3 15 27.1 14" class="st26"/></g><path d="M26.4,16.9L26.4,16.9l2.3-1.1l0-0.1C27.1,16.6,26.3,16.9,26.4,16.9z M28.6,15.6L28.6,15.6l-1.7,1l0-0.1 C26.9,16.5,26.7,16.5,28.6,15.6z M27.7,15.8L27.7,15.8l-1.5,0.9l0-0.1C26.3,16.5,26.1,16.6,27.7,15.8z M27.9,15.7l0.6-0.3 l0,0.1L27.9,15.7L27.9,15.7z M26.3,16.7l0.3-0.2l0,0.1L26.3,16.7L26.3,16.7z" class="st46"/><polygon points="26 15.8 26.1 16.3 27.3 15.7 27.2 15.2" class="st46"/><polygon points="27.2 15.1 27.4 15.7 28.5 15.1 28.4 14.5" class="st46"/><g><polygon points="24.9 11.8 25.4 14.2 28.2 12.7 27.7 10.4" class="st16"/><path d="M25.6,13.7L25.6,13.7l2.3-1.1l0-0.1C26.3,13.3,25.6,13.7,25.6,13.7z" class="st46"/><path d="M26.3,12.5l0.3,0.2c0.1,0.1,0.3,0,0.4-0.1c0-0.1,0-0.1,0.1-0.1c0-0.1,0-0.1,0-0.1l-0.1-0.1 c0,0-0.1,0-0.1,0l-0.1,0.1c0,0,0,0,0,0l-0.2-0.2c0,0,0,0,0,0l0.1-0.1c0,0,0-0.1,0-0.1l-0.1-0.1c0,0-0.1,0-0.1,0 c0,0-0.1,0.2-0.1,0.1C26.2,12.2,26.2,12.4,26.3,12.5z" class="st46"/><polygon points="25.9 10.7 26.2 11.7 26.5 11.5 26.3 10.5" class="st26"/></g></g></g></g><g><g><path d="M7.5,21.2l3.1-1.6c0.1,0,0.1,0,0.1,0.1c0,0.2,0.8,3.9,0.8,4.1c0,0.1,0,0.1-0.1,0.2l-3.1,1.6 c-0.1,0-0.1,0-0.1-0.1c0-0.2-0.8-3.9-0.8-4.1C7.4,21.3,7.4,21.2,7.5,21.2z" class="st47"/><path d="M7.8,22.7c0.2,0.9,0.4,1.8,0.6,2.7l3.1-1.6c-0.2-0.9-0.4-1.8-0.6-2.7L7.8,22.7z" class="st46"/><polygon points="8.4 21.9 8.4 22 10.1 21.1 10.1 21" class="st46"/><path d="M8.1,21.2c0.1,0,1.9-1,1.9-1c0.1-0.1,0.2,0,0.2,0.1c0,0.1,0,0.3-0.1,0.3c-0.1,0-1.9,1-1.9,1 c-0.1,0.1-0.2,0-0.2-0.1C8,21.4,8,21.2,8.1,21.2z" class="st46"/><polygon points="8.2 23.2 8.2 23.3 10.8 22 10.8 21.9" class="st48"/><path d="M8.6,22.7c0.2-0.1,0.3,0,0.3,0.2c0,0.2-0.1,0.4-0.2,0.5c-0.2,0.1-0.3,0-0.3-0.2C8.4,23,8.5,22.8,8.6,22.7z" class="st49"/><polygon points="11 23.1 11 23.1 8.5 24.5 8.4 24.4" class="st48"/><path d="M9.9,23.3c-0.2,0.1-0.2,0.3-0.2,0.5c0,0.2,0.2,0.3,0.3,0.2c0.2-0.1,0.2-0.3,0.2-0.5 C10.2,23.3,10,23.2,9.9,23.3z" class="st49"/></g><g><path d="M29.4,19.4l0,0.5c0,0.1-0.1,0.1-0.1,0.1l-0.2-0.5c-0.1-0.1-0.1-0.1-0.2-0.1c0,0-2.5,1.3-2.4,1.2 c-0.1,0.1-0.2,0-0.3-0.2c-0.1-0.5-0.2-1-0.3-1.4c0-0.1,0-0.3,0.1-0.4c0.2-0.1,3.2-1.6,3.1-1.6c0.1-0.1,0.2,0,0.3,0.2 c0.1,0.5,0.2,1,0.3,1.4c0,0.1,0,0.3-0.1,0.4C29.6,19.2,29.5,19.2,29.4,19.4z" class="st50"/><path d="M29.1,17.8l0,0.2l-2.6,1.3l0-0.2C26.6,19.1,26.4,19.2,29.1,17.8z M26.7,20l0,0.1l1.3-0.7l0-0.1 C26.8,20,26.7,20,26.7,20z M26.7,19.8l0,0.1l2.6-1.3l0-0.1C27.7,19.3,26.7,19.8,26.7,19.8z M26.6,19.5l0,0.1l2.6-1.3l0-0.1 L26.6,19.5z" class="st46"/></g><g><path d="M6.3,18.1l3.4-1.8c0.1,0,0.1,0,0.1,0.1c0.1,0.2,0.4,1.8,0.4,2c0,0.1,0,0.1-0.1,0.2l-3.4,1.8 c-0.1,0-0.1,0-0.1-0.1c0-0.2-0.4-1.8-0.4-2C6.2,18.2,6.2,18.1,6.3,18.1z" class="st51"/><path d="M7.1,19.9l-0.3-1.4l0.3-0.2l0.3,1.4L7.1,19.9z M9.4,18.7l-0.2-0.9l0.3-0.2l0.2,0.9L9.4,18.7z M8.9,18.9 l-0.1-0.7l0.3-0.2l0.1,0.7L8.9,18.9z M8.5,19.2L8.2,18l0.3-0.2L8.8,19L8.5,19.2z M8,19.4L7.7,18l0.3-0.2l0.3,1.4L8,19.4z M7.5,19.6L7.2,18l0.3-0.2l0.3,1.7L7.5,19.6z" class="st46"/></g><g><path d="M25.1,10.2C25.1,10.2,25.1,10.2,25.1,10.2c0.2-0.2,0.2-0.2,0.3-0.3c0.1,0,0.1,0,0.2,0 c0.5,0,0.9-0.6,0.9-1.3c0-0.7-0.3-1.2-0.8-1.2c-0.5,0-0.9,0.6-0.9,1.3c0,0.4,0.1,0.8,0.4,1C25.1,9.8,25,10,25.1,10.2z" class="st52"/><path d="M25.7,8.1l0-0.1L25.9,8l0,0.1C25.9,8.2,26,8.3,26,8.4l0.1,0l0,0.2l-0.1,0c0,0.1,0,0.2,0,0.3l0.1,0.1 L26,9.1l-0.1-0.1c0,0.1-0.1,0.2-0.2,0.2l0,0.1l-0.2,0.1l0-0.1c-0.1,0-0.1,0-0.2,0l0,0.1l-0.1-0.1l0-0.1 c-0.1-0.1-0.1-0.1-0.1-0.2l-0.1,0l0-0.2l0.1,0c0-0.1,0-0.2,0-0.3L25,8.5l0.1-0.2l0.1,0.1c0-0.1,0.1-0.2,0.2-0.2l0-0.1l0.2-0.1 l0,0.1C25.5,8,25.6,8,25.7,8.1z M25.5,8.4c-0.1,0.1-0.2,0.2-0.2,0.4c0,0.2,0.2,0.2,0.3,0.2c0.1-0.1,0.2-0.2,0.2-0.4 C25.8,8.4,25.6,8.3,25.5,8.4z" class="st46"/></g><g><path d="M8.1,29.2l3.7-1.9c0.1,0,0.1,0,0.1,0.1c0.1,0.3,0.4,1.9,0.5,2.2c0,0.1,0,0.2-0.1,0.2l-3.7,1.9 c-0.1,0-0.1,0-0.1-0.1c-0.1-0.3-0.4-1.9-0.5-2.2C8,29.3,8,29.2,8.1,29.2z" class="st53"/><g><path d="M11.7,28.5l0,0.2l-1.6,0.8l0-0.2C10.1,29.3,9.9,29.4,11.7,28.5z M11.1,29.7L11.1,29.7l-0.8,0.5l0-0.1 C10.3,30.2,10.1,30.2,11.1,29.7z M10.2,29.9L10.2,29.9l1.6-0.7l0-0.1C10.3,29.8,10.2,29.9,10.2,29.9z M10.2,29.7L10.2,29.7 l1.6-0.7l0-0.1L10.2,29.7z" class="st46"/><path d="M9.7,30.5l-0.2-1l0.2-0.1l0.2,1L9.7,30.5z M9.4,30.7L9.3,30l0.2-0.1l0.1,0.7L9.4,30.7z M9.1,30.8 l-0.3-1.2l0.2-0.1l0.3,1.2L9.1,30.8z M8.8,31l-0.3-1.5l0.2-0.1L9,30.9L8.8,31z" class="st46"/></g></g><g><path d="M18.6,11.1c0,0.1-0.1,0.1-0.1,0.1c-0.1-0.1-0.2-0.3-0.4-0.2c0,0-0.2,0.1-0.2,0.1c-0.1,0.1-0.3,0-0.3-0.2 c-0.1-0.5-0.2-1-0.3-1.5c0-0.2,0.1-0.4,0.2-0.4c0,0,3.9-2.1,3.8-2c0.1-0.1,0.3,0,0.3,0.2c0.1,0.5,0.2,1,0.3,1.5 c0,0.2-0.1,0.4-0.2,0.4c-0.2,0.1-2.9,1.5-2.8,1.5C18.7,10.6,18.7,10.9,18.6,11.1z" class="st53"/><path d="M18.3,8.8c0.3-0.2,0.7,0,0.7,0.4c0.1,0.4-0.1,0.8-0.5,1c-0.3,0.2-0.7,0-0.7-0.4C17.7,9.5,18,9,18.3,8.8z" class="st46"/><path d="M21.3,7.4l0,0.2l-2.1,1.1l0-0.2C19.2,8.5,19,8.6,21.3,7.4z M19.4,9.5l0,0.1l2.1-1.1l0-0.1 C20,9.2,19.4,9.5,19.4,9.5z M19.3,9.2l0,0.1l2.1-1.1l0-0.1C19.9,8.9,19.3,9.2,19.3,9.2z M19.3,9l0,0.1L21.4,8l0-0.1L19.3,9z" class="st46"/></g><g><path d="M16.1,11.6c0-0.1,0,0.1-0.3-1.6c0-0.1-0.2-0.2-0.3-0.1c0,0-3.8,2.1-3.8,2c-0.1,0.1-0.2,0.3-0.2,0.4 c0.1,0.5,0.2,1,0.3,1.5c0,0.2,0.2,0.2,0.3,0.2c0,0,3-1.6,3-1.6c0.2-0.1,0.3,0.1,0.4,0.2c0.1,0.1,0.1,0,0.1-0.1 c0-0.2,0.1-0.5,0.2-0.6C16,11.9,16.1,11.7,16.1,11.6z" class="st53"/><path d="M12.5,11.7c0.3-0.2,0.7,0,0.7,0.4c0.1,0.4-0.1,0.8-0.5,1c-0.3,0.2-0.7,0-0.7-0.4 C12,12.4,12.2,11.9,12.5,11.7z" class="st46"/><path d="M15.5,10.3l0,0.2l-2.1,1.1l0-0.2C13.5,11.4,13.3,11.5,15.5,10.3z M13.6,12.4l0,0.1l2.1-1.1l0-0.1 C14.2,12.1,13.6,12.4,13.6,12.4z M13.6,12.2l0,0.1l2.1-1.1l0-0.1C14.2,11.9,13.6,12.2,13.6,12.2z M13.5,11.9l0,0.1l2.1-1.1 l0-0.1L13.5,11.9z" class="st46"/></g></g><g><path d="M47.1,37.5c-2.6,1.5-7.2,4.1-8.6,5c-1.6-0.9,3.8,2.2-6.8-3.9c2-1.2,8.6-5,8.7-5.1 C43.8,35.6,46.4,37.1,47.1,37.5z" class="st54"/><g><path d="M38.8,39.4c-0.6,0.3-0.6,0.8-0.1,1.2c0.5,0.3,1.5,0.2,2,0c0.4-0.2,0.4-0.4,0.4-0.6c-0.2,0-0.3,0-0.5,0 c0,0.1,0,0.2-0.3,0.4c-0.3,0.2-0.9,0.2-1.3,0c-0.3-0.2-0.3-0.5,0-0.7C39,39.5,38.9,39.5,38.8,39.4z" class="st50"/><path d="M39.8,39.1c-0.4,0-0.7,0.1-1,0.3c0.1,0.1,0.2,0.1,0.3,0.2c0.2-0.1,0.4-0.2,0.6-0.2 C39.8,39.3,39.8,39.2,39.8,39.1z" class="st47"/><path d="M40.8,39.4c-0.3-0.2-0.6-0.2-1-0.2c0,0.1,0,0.2,0,0.3c0.2,0,0.5,0,0.6,0.1c0.2,0.1,0.2,0.2,0.2,0.4 c0.2,0,0.3,0,0.5,0C41.2,39.7,41,39.5,40.8,39.4z" class="st53"/></g><g><path d="M37.9,37.4c0.5,0.3,1.4,0.3,2,0c0.6-0.3,0.6-0.9,0.1-1.2C39.2,36.6,38.6,37,37.9,37.4z" class="st50"/><path d="M39,35.9c-0.4,0-0.6,0-1,0.3c-0.4,0.2-0.6,0.9-0.1,1.2c0.3-0.2,0.7-0.4,1-0.6C38.9,36.5,38.9,36.2,39,35.9 z" class="st47"/><path d="M40,36.1c-0.3-0.2-0.6-0.2-1-0.2c0,0.3,0,0.8,0,0.8C39.3,36.5,39.7,36.3,40,36.1z" class="st53"/></g><path d="M46.5,37.6c-0.3-0.2-6.1-3.7-6.1-3.7c-0.1,0.1-0.2,0.1-0.3,0.2c0.3,0.2,5.6,3.4,6.1,3.7 C46.2,37.7,46.4,37.6,46.5,37.6z" class="st46"/><path d="M44.7,38.6c-0.3-0.2-5.8-3.5-6.1-3.6c0.2-0.1,0.4-0.2,0.6-0.3c0.1,0.1,5.5,3.3,6.1,3.7 C45,38.4,44.8,38.5,44.7,38.6z" class="st46"/><path d="M44.5,38.7c-0.4-0.3,0.4,0.2-2.7-1.6c-0.1,0.1-0.2,0.1-0.3,0.2c3.3,2,2.3,1.3,2.7,1.6 C44.3,38.8,44.4,38.8,44.5,38.7z" class="st46"/><path d="M42.3,40c-0.5-0.3,0.3,0.2-2.7-1.6c0.6-0.3,1.2-0.7,1.7-1c0,0,2.7,1.6,2.7,1.6C43.4,39.3,42.8,39.6,42.3,40 z" class="st46"/><g><path d="M38.7,38.1c-2.8-1.6-2.2-1.3-2.8-1.6c-0.1,0.1-0.2,0.1-0.3,0.2c0.5,0.3,0.2,0.1,2.8,1.6 C38.5,38.2,38.6,38.2,38.7,38.1z" class="st46"/><path d="M36.6,39.3c-3.1-1.8-2.2-1.3-2.8-1.6c0.5-0.3,1.1-0.6,1.6-0.9c0.8,0.4-0.8-0.5,2.8,1.6 C37.7,38.7,37.2,39,36.6,39.3z" class="st46"/></g><path d="M39.4,41.6c-0.6-0.4-5.7-3.4-6.1-3.6c0.1-0.1,0.2-0.1,0.3-0.2c0.5,0.3,5.6,3.3,6.1,3.6 C39.6,41.5,39.5,41.6,39.4,41.6z" class="st46"/><path d="M38.6,42.1c-0.5-0.3-5.6-3.3-6.2-3.6c0.2-0.1,0.4-0.2,0.6-0.4c0.2,0.1,5.5,3.2,6.1,3.6 C39,41.9,38.8,42,38.6,42.1z" class="st46"/><path d="M45.4,38.1c0,0-6.1-3.6-6.1-3.7c0.1-0.1,0.3-0.2,0.4-0.3c0.2,0.1,5.8,3.5,6.1,3.7 C45.7,38,45.6,38.1,45.4,38.1z" class="st46"/></g><g><path d="M45.9,37.8c-2.2,1.3-5.8,3.4-7.8,4.5c-1.2-0.7-3.7-2.1-6.4-3.7c1.3-0.7,5.7-3.3,7.9-4.6 C42.8,36,45.2,37.4,45.9,37.8z" class="st55"/><path d="M45.6,37.7c-0.7-0.4-3.3-2-6.7-4c-1.4,0.8-7.3,4.2-8.7,5.1c3,1.8,5.8,3.4,6.8,3.9 C38.4,41.8,43,39.2,45.6,37.7z" class="st54"/><g><path d="M37.3,39.6c-0.6,0.3-0.6,0.8-0.1,1.2c0.5,0.3,1.5,0.2,2,0c0.4-0.2,0.4-0.4,0.4-0.6c-0.2,0-0.3,0-0.5,0 c0,0.1,0,0.2-0.3,0.4c-0.3,0.2-0.9,0.2-1.3,0c-0.3-0.2-0.3-0.5,0-0.7C37.5,39.7,37.4,39.6,37.3,39.6z" class="st50"/><path d="M38.3,39.3c-0.4,0-0.7,0.1-1,0.3c0.1,0.1,0.2,0.1,0.3,0.2c0.2-0.1,0.4-0.2,0.6-0.2 C38.3,39.5,38.3,39.4,38.3,39.3z" class="st47"/><path d="M39.3,39.5c-0.3-0.2-0.6-0.2-1-0.2c0,0.1,0,0.2,0,0.3c0.2,0,0.5,0,0.6,0.1c0.2,0.1,0.2,0.2,0.2,0.4 c0.2,0,0.3,0,0.5,0C39.6,39.9,39.5,39.7,39.3,39.5z" class="st53"/></g><g><path d="M36.4,37.5c0.5,0.3,1.4,0.3,2,0c0.6-0.3,0.6-0.9,0.1-1.2C37.7,36.7,37,37.1,36.4,37.5z" class="st50"/><path d="M37.4,36.1c-0.4,0-0.6,0-1,0.3c-0.4,0.2-0.6,0.9-0.1,1.2c0.3-0.2,0.7-0.4,1-0.6 C37.4,36.7,37.4,36.4,37.4,36.1z" class="st47"/><path d="M38.5,36.2c-0.3-0.2-0.6-0.2-1-0.2c0,0.3,0,0.8,0,0.8C37.8,36.6,38.2,36.4,38.5,36.2z" class="st53"/></g><path d="M44.9,37.7c-0.3-0.2-6.1-3.7-6.1-3.7c-0.1,0.1-0.2,0.1-0.3,0.2c0.3,0.2,5.6,3.4,6.1,3.7 C44.7,37.9,44.8,37.8,44.9,37.7z" class="st46"/><path d="M43.1,38.8c-0.3-0.2-5.8-3.5-6.1-3.6c0.2-0.1,0.4-0.2,0.6-0.3c0.1,0.1,5.5,3.3,6.1,3.7 C43.5,38.6,43.3,38.7,43.1,38.8z" class="st46"/><path d="M43,38.9c-0.4-0.3,0.4,0.2-2.7-1.6c-0.1,0.1-0.2,0.1-0.3,0.2c3.3,2,2.3,1.3,2.7,1.6 C42.8,39,42.9,38.9,43,38.9z" class="st46"/><path d="M40.8,40.1c-0.5-0.3,0.3,0.2-2.7-1.6c0.6-0.3,1.2-0.7,1.7-1c0,0,2.7,1.6,2.7,1.6 C41.9,39.5,41.3,39.8,40.8,40.1z" class="st46"/><g><path d="M37.2,38.3c-2.8-1.6-2.2-1.3-2.8-1.6c-0.1,0.1-0.2,0.1-0.3,0.2c0.5,0.3,0.2,0.1,2.8,1.6 C37,38.4,37.1,38.4,37.2,38.3z" class="st46"/><path d="M35.1,39.5c-3.1-1.8-2.2-1.3-2.8-1.6c0.5-0.3,1.1-0.6,1.6-0.9c0.8,0.4-0.8-0.5,2.8,1.6 C36.2,38.9,35.6,39.2,35.1,39.5z" class="st46"/></g><path d="M37.9,41.8c-0.6-0.4-5.7-3.4-6.1-3.6c0.1-0.1,0.2-0.1,0.3-0.2c0.5,0.3,5.6,3.3,6.1,3.6 C38.1,41.7,38,41.7,37.9,41.8z" class="st46"/><path d="M37,42.3c-0.5-0.3-5.6-3.3-6.2-3.6c0.2-0.1,0.4-0.2,0.6-0.4c0.2,0.1,5.5,3.2,6.1,3.6 C37.4,42.1,37.2,42.2,37,42.3z" class="st46"/><path d="M43.9,38.3c0,0-6.1-3.6-6.1-3.7c0.1-0.1,0.3-0.2,0.4-0.3c0.2,0.1,5.8,3.5,6.1,3.7 C44.2,38.2,44.1,38.2,43.9,38.3z" class="st46"/></g><g><path d="M36.9,38.3v0.5c0-0.4-0.2-0.7-0.7-1c-0.9-0.5-2.5-0.5-3.4,0c-0.5,0.3-0.7,0.6-0.7,1v-0.5 c0-0.4,0.2-0.7,0.7-1c0.9-0.5,2.4-0.5,3.4,0C36.7,37.6,36.9,38,36.9,38.3z" class="st12"/><path d="M36.2,39.6c-0.9,0.6-2.5,0.6-3.5,0c-1-0.6-1-1.5,0-2c0.9-0.6,2.5-0.6,3.5,0C37.2,38.1,37.2,39.1,36.2,39.6z" class="st56"/><path d="M37.2,38.3v0.5c0,0.4-0.3,0.8-0.8,1.1c-1.1,0.6-2.8,0.6-3.8,0c-0.5-0.3-0.8-0.7-0.8-1.1v-0.5 c0,0.4,0.3,0.8,0.8,1.1c1.1,0.6,2.8,0.6,3.8,0C36.9,39.1,37.2,38.7,37.2,38.3z" class="st12"/><path d="M36.4,37.2c1.1,0.6,1.1,1.6,0,2.3c-1.1,0.6-2.8,0.6-3.8,0c-1.1-0.6-1.1-1.6,0-2.3 C33.6,36.6,35.3,36.6,36.4,37.2z M32.8,39.3c0.9,0.5,2.5,0.5,3.4,0c0.9-0.5,0.9-1.4,0-2c-0.9-0.5-2.5-0.5-3.4,0 C31.9,37.9,31.9,38.8,32.8,39.3z" class="st13"/><path d="M32.2,39.3c0.1-0.1,0.4,0.2,0.4,0.4c0,0.1,0,0.1-0.1,0.1l-1.6,1c0.1-0.1,0-0.4-0.2-0.5c-0.1,0-0.1,0-0.2,0 L32.2,39.3z" class="st37"/><g class="st22"><path d="M31.5,39.5c0.1,0,0.2,0,0.3,0c0.3,0.2,0.5,0.8,0.3,1l-3,1.8c0.3-0.1,0.1-0.7-0.3-1c-0.1-0.1-0.2-0.1-0.3,0 L31.5,39.5z" class="st6"/><path d="M28.7,41.3c-0.2-0.1-0.4,0-0.4,0.2c0,0.3,0.2,0.6,0.4,0.7c0.2,0.1,0.4,0,0.4-0.2 C29.1,41.7,28.9,41.4,28.7,41.3z" class="st37"/></g></g></g></g></svg>